<svg xmlns="http://www.w3.org/2000/svg" viewBox="0 0 566.93 425.4"><title>logo-peb-2</title><path d="M288.21,216.42h-28v32.76h28.28a15.14,15.14,0,0,0,5.37-1,24.85,24.85,0,0,0,6.31-3.59,10.29,10.29,0,0,0,3.25-4.11,18.93,18.93,0,0,0,1.29-7.55,19.18,19.18,0,0,0-1.29-7.59,10.83,10.83,0,0,0-3.34-4.28,24.24,24.24,0,0,0-6.29-3.66,15.93,15.93,0,0,0-5.62-1Z" transform="translate(-105.39 -56.91)" fill="#6637ec"/><path d="M335.79,148.65a5,5,0,0,0,1.57,1,4.93,4.93,0,0,0,3.7,0,5,5,0,0,0,1.57-1l25-25.05a4.82,4.82,0,0,0,.18-7,4.84,4.84,0,0,0-3.55-1.41,4.81,4.81,0,0,0-1.9.45,4.71,4.71,0,0,0-1.56,1.17l-25,25a4.86,4.86,0,0,0-1,5.25,5,5,0,0,0,1,1.56Z" transform="translate(-105.39 -56.91)" fill="#6637ec"/><path d="M180.74,297.63,166.18,312.2a5,5,0,0,0-.94,1.56,4.93,4.93,0,0,0,.11,3.57,4.86,4.86,0,0,0,1,1.5,4.69,4.69,0,0,0,1.51,1,5,5,0,0,0,1.78.39,4.78,4.78,0,0,0,1.79-.3A4.62,4.62,0,0,0,173,319l7.73-7.73V297.63Z" transform="translate(-105.39 -56.91)" fill="#6637ec"/><path d="M266.39,122.38c2.66,0,4.82-3.14,4.82-7V63.92c0-3.86-2.16-7-4.82-7s-4.83,3.14-4.83,7v51.44C261.56,119.24,263.72,122.38,266.39,122.38Z" transform="translate(-105.39 -56.91)" fill="#6637ec"/><path d="M261.56,328.69v43.19a7.77,7.77,0,0,0,2.72,6.32h4.21a7.76,7.76,0,0,0,2.72-6.32V328.69Z" transform="translate(-105.39 -56.91)" fill="#6637ec"/><path d="M314.15,135.18c2.3,1.33,5.75-.31,7.69-3.66L347.56,87c1.93-3.36,1.63-7.16-.68-8.5s-5.75.31-7.69,3.67l-25.72,44.55c-1.94,3.35-1.63,7.15.68,8.49Z" transform="translate(-105.39 -56.91)" fill="#6637ec"/><path d="M360.32,169.21l41.83-24.15c3.35-1.93,5-5.38,3.66-7.69s-5.15-2.61-8.49-.64l-44.2,25.51a80.08,80.08,0,0,1,7.2,7Z" transform="translate(-105.39 -56.91)" fill="#6637ec"/><path d="M180.74,263.8a8.58,8.58,0,0,0-5.57,1.19l-44.55,25.72c-3.35,1.93-5,5.38-3.66,7.69s5.15,2.61,8.49.67L180,273.35a7.11,7.11,0,0,0,.74-.47Z" transform="translate(-105.39 -56.91)" fill="#6637ec"/><path d="M170.86,217.9c0-2.66-3.14-4.83-7-4.83H112.4c-3.87,0-7,2.17-7,4.83s3.14,4.83,7,4.83h51.45C167.72,222.73,170.86,220.57,170.86,217.9Z" transform="translate(-105.39 -56.91)" fill="#6637ec"/><path d="M130.62,145.09l44.55,25.72a8.57,8.57,0,0,0,5.65,1.18c0-.77.05-1.56.08-2.37q.14-3.12.45-5.52v0c0-.19.05-.38.08-.57a10.09,10.09,0,0,0-1.43-1l-44.55-25.72c-3.35-1.93-7.16-1.64-8.49.64s.33,5.76,3.66,7.69Z" transform="translate(-105.39 -56.91)" fill="#6637ec"/><path d="M321.15,322.42l9.42,16.31-1.88-19.58q-3.75,1.8-7.54,3.27Z" transform="translate(-105.39 -56.91)" fill="#6637ec"/><path d="M210.93,131.52c1.93,3.35,5.39,5,7.69,3.66s2.62-5.16.65-8.49L193.58,82.14c-1.93-3.36-5.38-5-7.69-3.67s-2.62,5.16-.65,8.5l25.69,44.55Z" transform="translate(-105.39 -56.91)" fill="#6637ec"/><path d="M166.74,240l-34.22,9.17a4.94,4.94,0,0,0-1.66.85,4.85,4.85,0,0,0-1.68,5,4.78,4.78,0,0,0,.82,1.68,4.81,4.81,0,0,0,3.15,1.86,4.66,4.66,0,0,0,1.86-.1l34.22-9.17a4.78,4.78,0,0,0,2.93-2.25,4.89,4.89,0,0,0,.61-1.78,4.77,4.77,0,0,0-.13-1.88,4.68,4.68,0,0,0-.83-1.69,5,5,0,0,0-1.41-1.25,4.9,4.9,0,0,0-3.67-.48Z" transform="translate(-105.39 -56.91)" fill="#6637ec"/><path d="M169.09,187l-34.2-9.19a4.81,4.81,0,0,0-1.89-.12,4.76,4.76,0,0,0-1.78.6,5,5,0,0,0-1.42,1.25,4.85,4.85,0,0,0-.83,1.69,4.76,4.76,0,0,0-.12,1.88,4.82,4.82,0,0,0,3.54,4l34.18,9.17a4.73,4.73,0,0,0,1.94.23,4.8,4.8,0,0,0,1.88-.55,4.65,4.65,0,0,0,1.5-1.25,4.76,4.76,0,0,0,.89-1.75,4.93,4.93,0,0,0,.12-1.95,4.86,4.86,0,0,0-.67-1.84,4.66,4.66,0,0,0-1.34-1.42,4.75,4.75,0,0,0-1.8-.78Z" transform="translate(-105.39 -56.91)" fill="#6637ec"/><path d="M196.75,141.28l-24.13-24.13a4.89,4.89,0,0,0-1.57-1.08,4.73,4.73,0,0,0-1.86-.39,4.62,4.62,0,0,0-1.87.36,4.84,4.84,0,0,0-2.64,2.64,4.79,4.79,0,0,0-.36,1.87,5,5,0,0,0,.39,1.87A4.83,4.83,0,0,0,165.8,124l23.06,23.07a25.66,25.66,0,0,1,7.89-5.77Z" transform="translate(-105.39 -56.91)" fill="#6637ec"/><path d="M291.87,328.62l6.34,23.68a4.81,4.81,0,0,0,5.92,3.41,4.76,4.76,0,0,0,1.69-.83,4.83,4.83,0,0,0,1.24-1.42,4.7,4.7,0,0,0,.6-1.78,4.59,4.59,0,0,0-.12-1.88l-5.93-22.13a88.45,88.45,0,0,1-9.74.95Z" transform="translate(-105.39 -56.91)" fill="#6637ec"/><path d="M235.47,120.22a4.87,4.87,0,0,0,.84,1.69,4.69,4.69,0,0,0,1.42,1.24,4.89,4.89,0,0,0,1.78.61,4.77,4.77,0,0,0,1.88-.13,4.6,4.6,0,0,0,1.69-.83,4.85,4.85,0,0,0,1.25-1.42,4.74,4.74,0,0,0,.6-1.79,5,5,0,0,0-.12-1.88L235.63,83.5a4.8,4.8,0,0,0-.8-1.75,4.89,4.89,0,0,0-1.42-1.3,4.73,4.73,0,0,0-1.81-.64,4.89,4.89,0,0,0-3.65,1,4.9,4.9,0,0,0-1.25,1.47,4.85,4.85,0,0,0-.4,3.75l9.17,34.22Z" transform="translate(-105.39 -56.91)" fill="#6637ec"/><path d="M291.94,123.49a4.9,4.9,0,0,0,3.67-.48,4.88,4.88,0,0,0,2.25-2.93L307,85.89a5,5,0,0,0,.12-1.88,4.83,4.83,0,0,0-1.85-3.2,4.87,4.87,0,0,0-1.69-.84,5,5,0,0,0-1.88-.12,4.59,4.59,0,0,0-1.79.61,4.78,4.78,0,0,0-1.41,1.24,4.68,4.68,0,0,0-.83,1.69l-9.18,34.19a5,5,0,0,0-.12,1.88,4.89,4.89,0,0,0,1.85,3.2,4.94,4.94,0,0,0,1.69.83Z" transform="translate(-105.39 -56.91)" fill="#6637ec"/><path d="M327.49,306.69A81.87,81.87,0,0,1,288.21,317H248.56v35.83a91.85,91.85,0,0,1-.47,11,25.6,25.6,0,0,1-3,8.41q-4.44,8.57-24.74,8.56-22.2,0-26-11.74-1.89-5.38-1.9-16.49v-176a94,94,0,0,1,.47-10.94,25.64,25.64,0,0,1,3-8.41q4.44-8.57,24.73-8.56h67.88q27.92,0,54.23,20.3a66,66,0,0,1,11.53,11.21,66.3,66.3,0,0,0-15.05,3.27A30.42,30.42,0,0,0,326,192a29.67,29.67,0,0,0-6.29,14.41,63.9,63.9,0,0,0-.29,16.74l8,83.53Zm-39.28-102H248.56v56.14h40q9.51,0,18.72-7T316.44,233q0-14-9.19-21.09t-19-7.14Z" transform="translate(-105.39 -56.91)" fill="#e68429"/><path d="M653.61,256.43q18.71,22.2,18.71,49.79-.63,31.72-21.73,53.13t-51.22,21.41H540.58c-.68-8.31-2.28-15.58-4.82-21.13-4.36-9.53-10.69-13.55-19.6-15.81-7.95-2-19.59-.25-28.11.57V329.24c8.85-8.07,10.51-21.18,9.25-34.24q-1.16-12.06-4.7-19.8a31,31,0,0,0-4.55-7.28V247c7.68-.76,13.41-1.71,19.62-4.47,14.7-6.52,17.46-22.64,15.92-38.67-1.37-14.24-5.42-28.13-18-33.49-6.32-2.7-10.57-3.3-17.28-3,.29-3.92,1-6.21,3.25-10.54q4.44-8.57,24.73-8.57H596.2q29.17,0,48.85,20.3,20.61,20.63,20.61,49.48a66.1,66.1,0,0,1-12,38.38Zm-37.43,46.62c0-7.41-1.07-15.58-7.61-18.39q-6.35-2.55-17.76-2.54t-17.13-4.44q-5.7-4.44-5.71-18.24t5.87-18.24q5.86-4.44,19.5-4.44,12.69,0,15.23-6.66,1-3.48.95-11.41t-5.24-11.11q-5.22-3.17-15.69-3.17H544.18V324.62h52q20,0,20-21.57Z" transform="translate(-105.39 -56.91)" fill="#e68429"/><path d="M401.14,364.44l97.24-9.34a89.55,89.55,0,0,1,10.94-.57,25.31,25.31,0,0,1,8.65,2.19q9,3.6,10.89,23.81,2.13,22.1-9.19,27Q514.48,410,503.44,411l-125,12q-22.1,2.12-27-9.51-2.37-4.87-3.44-15.92L331.06,222.06Q329.52,206,335,199.55t22.17-8l124.39-12a93.86,93.86,0,0,1,10.94-.57,25.59,25.59,0,0,1,8.65,2.2q9,3.6,10.89,23.8,2.13,22.11-9.19,27-5.19,2.42-16.24,3.48l-96.92,9.31,3.06,31.89,62.51-6a91.8,91.8,0,0,1,11-.57,25.31,25.31,0,0,1,8.65,2.19q9,3.6,10.89,23.81,2.13,22.09-9.51,27-5.19,2.4-16.23,3.47l-61.89,5.95,3.07,31.88Z" transform="translate(-105.39 -56.91)" fill="#e68429"/><path d="M209.45,465.15a9.76,9.76,0,0,1-6,2.23h-4.35v3.93a11.49,11.49,0,0,1-.05,1.2,3,3,0,0,1-.33.92c-.33.63-1.23.94-2.72.94s-2.57-.43-2.85-1.29a5.74,5.74,0,0,1-.21-1.81V452a11.49,11.49,0,0,1,.05-1.2,3,3,0,0,1,.33-.92c.33-.63,1.23-.94,2.72-.94h7.44a9.68,9.68,0,0,1,6,2.22,8.1,8.1,0,0,1,2.33,2.93,9.24,9.24,0,0,1,.9,4.1,9.1,9.1,0,0,1-.9,4.09,8.11,8.11,0,0,1-2.33,2.91Zm-6-10.09h-4.35v6.16h4.38a3.41,3.41,0,0,0,2.06-.77,2.7,2.7,0,0,0,1-2.3,2.75,2.75,0,0,0-1-2.31A3.4,3.4,0,0,0,203.46,455.06Z" transform="translate(-105.39 -56.91)" fill="#e68429"/><path d="M226.35,462.37a2.86,2.86,0,0,1-1.21-.28,3.39,3.39,0,0,0-1.51-.28,2.76,2.76,0,0,0-1.76.66,2,2,0,0,0-.81,1.6v7.31a8.87,8.87,0,0,1-.06,1.2,2.57,2.57,0,0,1-.33.92c-.35.6-1.25.91-2.71.91a3.84,3.84,0,0,1-2.4-.59,2.13,2.13,0,0,1-.63-1.5V459.09a11.49,11.49,0,0,1,0-1.2,3.06,3.06,0,0,1,.3-.88c.32-.63,1.23-.94,2.71-.94s2.27.26,2.61.8A2,2,0,0,1,221,458a5.06,5.06,0,0,1,.5-.6,6.71,6.71,0,0,1,1.41-.94,4.11,4.11,0,0,1,1.9-.59,8.79,8.79,0,0,1,1.37.09,8.62,8.62,0,0,1,1.22.3,2.26,2.26,0,0,1,1.1.71,2.45,2.45,0,0,1,.43,1.62,5.49,5.49,0,0,1-.66,2.43,2.07,2.07,0,0,1-1.91,1.33Z" transform="translate(-105.39 -56.91)" fill="#e68429"/><path d="M249.44,465.22a9.08,9.08,0,0,1-1.49,5.13,9.39,9.39,0,0,1-3.64,3.31,9.86,9.86,0,0,1-4.44,1.06,9.52,9.52,0,0,1-4.45-1.13,9.9,9.9,0,0,1-3.64-3.34,8.85,8.85,0,0,1-1.48-5,9,9,0,0,1,2.92-6.89,9.55,9.55,0,0,1,6.69-2.71,9.43,9.43,0,0,1,6.64,2.7A9,9,0,0,1,249.44,465.22Zm-10.75,3.37a5.65,5.65,0,0,0,3.44-.86,3.5,3.5,0,0,0,.07-5.12,3.71,3.71,0,0,0-2.33-.84,3.65,3.65,0,0,0-2.33.87,3.1,3.1,0,0,0-1.08,2.56,3,3,0,0,0,1.11,2.54l1.12.86Z" transform="translate(-105.39 -56.91)" fill="#e68429"/><path d="M263.31,472.11a4.94,4.94,0,0,1-4.21,1.74,7.44,7.44,0,0,1-5.41-2.66,8.91,8.91,0,0,1,0-12.44,7.56,7.56,0,0,1,5.57-2.68,5.24,5.24,0,0,1,2.16.43,4.88,4.88,0,0,1,1.34.8,5.13,5.13,0,0,1,.57.68,2.15,2.15,0,0,1,.71-1.48,3.13,3.13,0,0,1,2-.5,6.74,6.74,0,0,1,2,.21,1.44,1.44,0,0,1,.89.71,2.79,2.79,0,0,1,.31.89,8.33,8.33,0,0,1,.06,1.18V473.4a8.16,8.16,0,0,1-2.79,6.45,9.2,9.2,0,0,1-6.26,2.46,10.51,10.51,0,0,1-5.05-1.29c-1.6-.86-2.4-1.64-2.4-2.33a3.3,3.3,0,0,1,1-2.4,9,9,0,0,1,1-1,1.34,1.34,0,0,1,.85-.28,1.63,1.63,0,0,1,1,.42,5.86,5.86,0,0,0,3.62,1.28,2.63,2.63,0,0,0,2.16-1,3.87,3.87,0,0,0,.83-2.51v-1Zm-6.19-6c1.18,1.21,2.2,1.81,3.05,1.81a2.7,2.7,0,0,0,2.1-.92,2.94,2.94,0,0,0,.84-2,3.16,3.16,0,0,0-.8-2.05,2.68,2.68,0,0,0-2.16-1,2.79,2.79,0,0,0-2.19.94,3.05,3.05,0,0,0-.84,2.07v1.13Z" transform="translate(-105.39 -56.91)" fill="#e68429"/><path d="M283.45,462.37a2.78,2.78,0,0,1-1.2-.28,3.42,3.42,0,0,0-1.51-.28,2.74,2.74,0,0,0-1.76.66,2,2,0,0,0-.82,1.6v7.31a11.49,11.49,0,0,1-.05,1.2,3,3,0,0,1-.33.92c-.35.6-1.25.91-2.72.91a3.88,3.88,0,0,1-2.4-.59,2.09,2.09,0,0,1-.62-1.5V459.09a9.23,9.23,0,0,1,0-1.2,2.74,2.74,0,0,1,.29-.88c.33-.63,1.23-.94,2.72-.94s2.26.26,2.61.8a2,2,0,0,1,.38,1.15,6.62,6.62,0,0,1,.51-.6,6.71,6.71,0,0,1,1.41-.94,4.08,4.08,0,0,1,1.89-.59,8.84,8.84,0,0,1,1.38.09,9,9,0,0,1,1.22.3,2.24,2.24,0,0,1,1.09.71,2.45,2.45,0,0,1,.44,1.62,5.38,5.38,0,0,1-.67,2.43,2.06,2.06,0,0,1-1.91,1.33Z" transform="translate(-105.39 -56.91)" fill="#e68429"/><path d="M299.83,458c.14-1.3,1.06-1.95,2.75-1.95a7.15,7.15,0,0,1,2,.21,1.41,1.41,0,0,1,.92.73,2.89,2.89,0,0,1,.32.92,11.35,11.35,0,0,1,.05,1.2v12.18a11.49,11.49,0,0,1-.05,1.2,3.49,3.49,0,0,1-.3.92c-.33.61-1.12.91-2.38.91a4.69,4.69,0,0,1-2.54-.47,1.89,1.89,0,0,1-.75-1.38,4.87,4.87,0,0,1-4.3,1.85,7.61,7.61,0,0,1-5.59-2.75,9.09,9.09,0,0,1-2.57-6.39,9,9,0,0,1,2.59-6.37,7.75,7.75,0,0,1,5.69-2.73,5.4,5.4,0,0,1,2.16.42,5,5,0,0,1,1.36.78,4.88,4.88,0,0,1,.62.72Zm-6.33,8.38c1.2,1.23,2.24,1.85,3.1,1.85a2.8,2.8,0,0,0,2.14-.94,3.06,3.06,0,0,0,.85-2.07,3.19,3.19,0,0,0-.82-2.11,2.71,2.71,0,0,0-2.19-1,2.82,2.82,0,0,0-2.23,1,3.15,3.15,0,0,0-.85,2.12v1.15Z" transform="translate(-105.39 -56.91)" fill="#e68429"/><path d="M314.64,458.5a4.72,4.72,0,0,1,3.94-2.47,5.71,5.71,0,0,1,5.29,3,11.65,11.65,0,0,1,.92-1.1,7.58,7.58,0,0,1,1.72-1.25A4.87,4.87,0,0,1,329,456a6,6,0,0,1,4.66,2.14q1.88,2.15,1.88,7.08v6.09a11.57,11.57,0,0,1-.05,1.21,3.13,3.13,0,0,1-.33.92c-.3.62-1.2.94-2.68.94s-2.36-.33-2.68-1a3.49,3.49,0,0,1-.3-.92,11.49,11.49,0,0,1-.05-1.2v-6.09q0-3-2.16-3a1.71,1.71,0,0,0-1.65.8,4.82,4.82,0,0,0-.44,2.26v6.09a9.11,9.11,0,0,1,0,1.22,2.6,2.6,0,0,1-.33.91c-.32.62-1.23.94-2.71.94s-2.36-.33-2.68-1a3.15,3.15,0,0,1-.3-.92,11.49,11.49,0,0,1-.05-1.2v-6.09q0-3-2.16-3c-1.39,0-2.09,1-2.09,3v6.16a9.23,9.23,0,0,1,0,1.2,2.57,2.57,0,0,1-.33.92c-.35.61-1.25.91-2.71.91s-2.36-.32-2.68-.94a3.2,3.2,0,0,1-.3-.91,11.24,11.24,0,0,1,0-1.22V459.09a11.49,11.49,0,0,1,0-1.2A2.68,2.68,0,0,1,309,457c.35-.63,1.17-.94,2.47-.94a3.65,3.65,0,0,1,2.54.62,2.52,2.52,0,0,1,.59,1.81Z" transform="translate(-105.39 -56.91)" fill="#e68429"/><path d="M350.16,458c.14-1.3,1-1.95,2.75-1.95a7.12,7.12,0,0,1,2,.21,1.43,1.43,0,0,1,.93.73,2.85,2.85,0,0,1,.31.92,11.35,11.35,0,0,1,0,1.2v12.18a11.49,11.49,0,0,1,0,1.2,2.88,2.88,0,0,1-.3.92c-.32.61-1.12.91-2.38.91a4.74,4.74,0,0,1-2.54-.47,1.89,1.89,0,0,1-.75-1.38,4.87,4.87,0,0,1-4.3,1.85,7.59,7.59,0,0,1-5.58-2.75,9.15,9.15,0,0,1,0-12.76A7.72,7.72,0,0,1,346,456.1a5.4,5.4,0,0,1,2.16.42,4.87,4.87,0,0,1,1.36.78,5,5,0,0,1,.63.72Zm-6.34,8.38c1.21,1.23,2.24,1.85,3.1,1.85a2.79,2.79,0,0,0,2.14-.94,3,3,0,0,0,.85-2.07,3.23,3.23,0,0,0-.81-2.11,2.73,2.73,0,0,0-2.2-1,2.8,2.8,0,0,0-2.22,1,3.17,3.17,0,0,0-.86,2.12v1.15Z" transform="translate(-105.39 -56.91)" fill="#e68429"/><path d="M382.78,468.25H393.5a9.23,9.23,0,0,1,1.2.05,2.64,2.64,0,0,1,.92.33c.63.32.94,1.23.94,2.71,0,1.63-.43,2.58-1.29,2.86a5.78,5.78,0,0,1-1.81.21H379.68c-1.62,0-2.57-.44-2.85-1.33a5.41,5.41,0,0,1-.21-1.77V452a3.39,3.39,0,0,1,.66-2.42,3.65,3.65,0,0,1,2.51-.64H393.5a11.49,11.49,0,0,1,1.2.05,2.64,2.64,0,0,1,.92.33c.63.33.94,1.23.94,2.71s-.43,2.58-1.29,2.86a5.78,5.78,0,0,1-1.81.21H382.78v3.51h6.89a11.49,11.49,0,0,1,1.2.05,2.83,2.83,0,0,1,.92.34c.63.32.94,1.22.94,2.71s-.44,2.57-1.32,2.85a5.82,5.82,0,0,1-1.81.21h-6.82v3.52Z" transform="translate(-105.39 -56.91)" fill="#e68429"/><path d="M416.83,450.57v20.77a9.31,9.31,0,0,1-.05,1.21,2.29,2.29,0,0,1-.33.88c-.35.63-1.33.94-2.94.94s-2.51-.57-2.7-1.7a5.13,5.13,0,0,1-4.07,1.67,7.73,7.73,0,0,1-5.71-2.73,9.18,9.18,0,0,1,0-12.76,7.74,7.74,0,0,1,5.69-2.75,4.88,4.88,0,0,1,4,1.74v-7.31a8.87,8.87,0,0,1,.06-1.2,2.76,2.76,0,0,1,.31-.9,1.46,1.46,0,0,1,.92-.72,7.84,7.84,0,0,1,3.52,0,1.48,1.48,0,0,1,.92.74,2.85,2.85,0,0,1,.31.92,9,9,0,0,1,.05,1.2Zm-10.47,17.71c1.72,0,2.86-.31,3.43-.94a3,3,0,0,0,.85-2.07,3.19,3.19,0,0,0-.82-2.1,2.73,2.73,0,0,0-2.21-1,2.81,2.81,0,0,0-2.23,1,3.16,3.16,0,0,0-.83,2.1,2.94,2.94,0,0,0,.9,2.09l.91.94Z" transform="translate(-105.39 -56.91)" fill="#e68429"/><path d="M427.75,474.34a7.4,7.4,0,0,1-5.83-2.66,9.59,9.59,0,0,1-2.32-6.5v-6.09a8.63,8.63,0,0,1,.06-1.21A3.14,3.14,0,0,1,420,457c.33-.62,1.23-.94,2.72-.94s2.57.44,2.85,1.32a5.52,5.52,0,0,1,.21,1.78v6.09a2.8,2.8,0,0,0,3,3,3,3,0,0,0,2.23-.84,2.92,2.92,0,0,0,.85-2.19v-6.16a11.49,11.49,0,0,1,.05-1.2,3,3,0,0,1,.33-.92c.3-.61,1.2-.91,2.68-.91s2.36.32,2.68.94a3.61,3.61,0,0,1,.3.92,11.49,11.49,0,0,1,.05,1.2v12.32a11.11,11.11,0,0,1-.05,1.17,2.72,2.72,0,0,1-.33.89c-.35.6-1.24.9-2.68.9s-2.29-.28-2.61-.83a2.81,2.81,0,0,1-.35-1.43,3.63,3.63,0,0,1-.63.7,8.48,8.48,0,0,1-.94.76,4.64,4.64,0,0,1-2.57.77Z" transform="translate(-105.39 -56.91)" fill="#e68429"/><path d="M453.07,467.06c.7,0,1.54.62,2.54,1.85a3.06,3.06,0,0,1,.8,1.81c0,.88-.64,1.7-1.91,2.47a8.29,8.29,0,0,1-4.88,1.39,10.07,10.07,0,0,1-6.23-2.33,8.29,8.29,0,0,1-2.33-3,9.3,9.3,0,0,1-.9-4.1,9,9,0,0,1,.9-4.07,8.54,8.54,0,0,1,2.33-3,9.74,9.74,0,0,1,6.16-2.29,9.29,9.29,0,0,1,2.58.36,8.43,8.43,0,0,1,1.84.72l.56.34c.42.28.74.5,1,.67a2,2,0,0,1,.91,1.58,3.73,3.73,0,0,1-.73,2c-.84,1.28-1.64,1.91-2.4,1.91a4,4,0,0,1-1.88-.76,2.5,2.5,0,0,0-1.79-.59,3.38,3.38,0,0,0-2.18.83,2.86,2.86,0,0,0-1,2.32,2.82,2.82,0,0,0,1,2.29,3.15,3.15,0,0,0,2.07.82,3.6,3.6,0,0,0,2-.64,3.07,3.07,0,0,1,1.55-.65Z" transform="translate(-105.39 -56.91)" fill="#e68429"/><path d="M470.56,458c.14-1.3,1.06-1.95,2.75-1.95a7.15,7.15,0,0,1,2,.21,1.41,1.41,0,0,1,.92.73,2.89,2.89,0,0,1,.32.92,11.35,11.35,0,0,1,.05,1.2v12.18a11.49,11.49,0,0,1-.05,1.2,3.49,3.49,0,0,1-.3.92c-.32.61-1.12.91-2.38.91a4.69,4.69,0,0,1-2.54-.47,1.89,1.89,0,0,1-.75-1.38,4.87,4.87,0,0,1-4.3,1.85,7.61,7.61,0,0,1-5.59-2.75,9.09,9.09,0,0,1-2.57-6.39,9,9,0,0,1,2.59-6.37,7.75,7.75,0,0,1,5.69-2.73,5.4,5.4,0,0,1,2.16.42,5,5,0,0,1,1.36.78,4.88,4.88,0,0,1,.62.72Zm-6.33,8.38c1.2,1.23,2.24,1.85,3.1,1.85a2.8,2.8,0,0,0,2.14-.94,3.06,3.06,0,0,0,.85-2.07,3.19,3.19,0,0,0-.82-2.11,2.71,2.71,0,0,0-2.19-1,2.82,2.82,0,0,0-2.23,1,3.15,3.15,0,0,0-.85,2.12v1.15Z" transform="translate(-105.39 -56.91)" fill="#e68429"/><path d="M490.8,462.37a2.85,2.85,0,0,1-1.2-.28,3.39,3.39,0,0,0-1.51-.28,2.76,2.76,0,0,0-1.76.66,2,2,0,0,0-.82,1.6v7.31a9.23,9.23,0,0,1-.05,1.2,2.57,2.57,0,0,1-.33.92c-.35.6-1.25.91-2.71.91a3.89,3.89,0,0,1-2.41-.59,2.09,2.09,0,0,1-.62-1.5V459.09a11.49,11.49,0,0,1,.05-1.2,2.78,2.78,0,0,1,.3-.88c.32-.63,1.23-.94,2.71-.94s2.26.26,2.61.8a2,2,0,0,1,.38,1.15,6.62,6.62,0,0,1,.51-.6,6.71,6.71,0,0,1,1.41-.94,4.11,4.11,0,0,1,1.89-.59,8.84,8.84,0,0,1,1.38.09,8.62,8.62,0,0,1,1.22.3,2.24,2.24,0,0,1,1.09.71,2.45,2.45,0,0,1,.44,1.62,5.49,5.49,0,0,1-.66,2.43,2.07,2.07,0,0,1-1.92,1.33Z" transform="translate(-105.39 -56.91)" fill="#e68429"/><path d="M522.25,460.73a8.31,8.31,0,0,1-.33,11.29,7.6,7.6,0,0,1-5.62,2.35h-9.16q-2.43,0-2.85-1.32a5.82,5.82,0,0,1-.21-1.81V451.93a11.24,11.24,0,0,1,.05-1.22,3.08,3.08,0,0,1,.33-.91c.33-.62,1.23-.94,2.72-.94H516a7.19,7.19,0,0,1,5.36,2.23,7.4,7.4,0,0,1,2.26,5.43,7.27,7.27,0,0,1-1.32,4.21Zm-4.11,5.12a3.71,3.71,0,0,0-.19-1.33,1.24,1.24,0,0,0-.64-.69,5.37,5.37,0,0,0-1.95-.28,3,3,0,0,1-1.88-.49,3.47,3.47,0,0,1,0-4,3.61,3.61,0,0,1,2.15-.49c.92,0,1.48-.24,1.67-.73a5.27,5.27,0,0,0,.1-1.25,1.31,1.31,0,0,0-.57-1.22,3.44,3.44,0,0,0-1.73-.35h-4.87v13.19H516c1.46,0,2.19-.79,2.19-2.36Z" transform="translate(-105.39 -56.91)" fill="#e68429"/><path d="M538,462.37a2.85,2.85,0,0,1-1.2-.28,3.42,3.42,0,0,0-1.51-.28,2.76,2.76,0,0,0-1.76.66,2,2,0,0,0-.82,1.6v7.31a9.23,9.23,0,0,1,0,1.2,2.57,2.57,0,0,1-.33.92c-.35.6-1.25.91-2.71.91a3.89,3.89,0,0,1-2.41-.59,2.09,2.09,0,0,1-.62-1.5V459.09a11.49,11.49,0,0,1,.05-1.2,2.55,2.55,0,0,1,.3-.88c.32-.63,1.23-.94,2.71-.94s2.26.26,2.61.8a2,2,0,0,1,.38,1.15,6.62,6.62,0,0,1,.51-.6,6.71,6.71,0,0,1,1.41-.94,4.11,4.11,0,0,1,1.89-.59,8.84,8.84,0,0,1,1.38.09,8.62,8.62,0,0,1,1.22.3,2.24,2.24,0,0,1,1.09.71,2.45,2.45,0,0,1,.44,1.62,5.49,5.49,0,0,1-.66,2.43,2.07,2.07,0,0,1-1.92,1.33Z" transform="translate(-105.39 -56.91)" fill="#e68429"/><path d="M542.44,459.13a11.35,11.35,0,0,1,0-1.2,3.37,3.37,0,0,1,.3-.92c.33-.61,1.23-.91,2.71-.91a3.7,3.7,0,0,1,2.37.59,1.94,1.94,0,0,1,.63,1.5c0,.23,0,.57,0,1v12.18a11.49,11.49,0,0,1,0,1.2,2.78,2.78,0,0,1-.33.92c-.3.6-1.2.91-2.68.91s-2.35-.32-2.68-.94a3.55,3.55,0,0,1-.3-.91,11.24,11.24,0,0,1,0-1.22V459.13Zm.35-10.69c.33-.62,1.23-.93,2.71-.93s2.35.31,2.65.93a2.62,2.62,0,0,1,.33.93,11.21,11.21,0,0,1,0,1.2,11.49,11.49,0,0,1,0,1.2,2.68,2.68,0,0,1-.31.9,1.48,1.48,0,0,1-.93.72,5.92,5.92,0,0,1-1.75.21,6,6,0,0,1-1.76-.21,1.47,1.47,0,0,1-.92-.73,3,3,0,0,1-.32-.93,11.21,11.21,0,0,1,0-1.2,11.49,11.49,0,0,1,0-1.2,3.21,3.21,0,0,1,.3-.89Z" transform="translate(-105.39 -56.91)" fill="#e68429"/><path d="M561.51,456.07a7.33,7.33,0,0,1,5.79,2.66,9.56,9.56,0,0,1,2.32,6.49v6.12a8.93,8.93,0,0,1-.06,1.21,2.74,2.74,0,0,1-.29.88c-.33.63-1.23.94-2.72.94s-2.59-.43-2.85-1.29a5.58,5.58,0,0,1-.21-1.77v-6.13a2.8,2.8,0,0,0-3-3,3.07,3.07,0,0,0-2.23.83,3,3,0,0,0-.85,2.19v6.16a11.57,11.57,0,0,1,0,1.21,2.68,2.68,0,0,1-.33.88c-.3.63-1.2.94-2.68.94s-2.36-.31-2.68-.94a3.49,3.49,0,0,1-.3-.92,11.49,11.49,0,0,1-.05-1.2V459a11.11,11.11,0,0,1,.05-1.17,2.68,2.68,0,0,1,.33-.88c.33-.58,1.22-.87,2.68-.87s2.29.26,2.61.8a2.67,2.67,0,0,1,.35,1.42,3.37,3.37,0,0,1,.63-.69,5.72,5.72,0,0,1,.94-.73,4.52,4.52,0,0,1,2.61-.8Z" transform="translate(-105.39 -56.91)" fill="#e68429"/><path d="M584.78,467.06c.69,0,1.54.62,2.54,1.85a3.06,3.06,0,0,1,.8,1.81c0,.88-.64,1.7-1.92,2.47a8.23,8.23,0,0,1-4.87,1.39,10,10,0,0,1-6.23-2.33,8.19,8.19,0,0,1-2.33-3,9.3,9.3,0,0,1-.91-4.1,9.05,9.05,0,0,1,.91-4.07,8.42,8.42,0,0,1,2.33-3,9.74,9.74,0,0,1,6.16-2.29,9.35,9.35,0,0,1,2.58.36,8.43,8.43,0,0,1,1.84.72l.56.34c.41.28.74.5,1,.67a2,2,0,0,1,.91,1.58,3.82,3.82,0,0,1-.73,2c-.84,1.28-1.64,1.91-2.41,1.91a4,4,0,0,1-1.88-.76,2.46,2.46,0,0,0-1.79-.59,3.37,3.37,0,0,0-2.17.83,3.18,3.18,0,0,0,0,4.61,3.15,3.15,0,0,0,2.07.82,3.63,3.63,0,0,0,2.06-.64,3,3,0,0,1,1.55-.65Z" transform="translate(-105.39 -56.91)" fill="#e68429"/><path d="M602.27,458c.14-1.3,1.06-1.95,2.75-1.95a7.2,7.2,0,0,1,2,.21,1.41,1.41,0,0,1,.92.73,2.85,2.85,0,0,1,.31.92,9.14,9.14,0,0,1,.05,1.2v12.18a9.23,9.23,0,0,1-.05,1.2,3.1,3.1,0,0,1-.29.92c-.33.61-1.12.91-2.39.91a4.74,4.74,0,0,1-2.54-.47,1.89,1.89,0,0,1-.75-1.38,4.85,4.85,0,0,1-4.29,1.85,7.61,7.61,0,0,1-5.59-2.75,9.15,9.15,0,0,1,0-12.76,7.74,7.74,0,0,1,5.69-2.73,5.4,5.4,0,0,1,2.16.42,4.93,4.93,0,0,1,1.35.78,4.44,4.44,0,0,1,.63.72Zm-6.33,8.38c1.2,1.23,2.23,1.85,3.09,1.85a2.79,2.79,0,0,0,2.14-.94,3,3,0,0,0,.86-2.07,3.24,3.24,0,0,0-.82-2.11,2.73,2.73,0,0,0-2.2-1,2.81,2.81,0,0,0-2.22,1,3.15,3.15,0,0,0-.85,2.12Z" transform="translate(-105.39 -56.91)" fill="#e68429"/><path d="M621.29,456.07a7.36,7.36,0,0,1,5.8,2.66,9.55,9.55,0,0,1,2.31,6.49v6.12a11.57,11.57,0,0,1,0,1.21,3.06,3.06,0,0,1-.3.88c-.32.63-1.23.94-2.71.94-1.65,0-2.6-.43-2.86-1.29a6,6,0,0,1-.2-1.77v-6.13a2.8,2.8,0,0,0-3-3A3.07,3.07,0,0,0,618,463a2.93,2.93,0,0,0-.85,2.19v6.16a8.93,8.93,0,0,1-.06,1.21,2.29,2.29,0,0,1-.33.88c-.3.63-1.19.94-2.68.94s-2.35-.31-2.68-.94a3.1,3.1,0,0,1-.29-.92,9.23,9.23,0,0,1,0-1.2V459a8.9,8.9,0,0,1,0-1.17,2.29,2.29,0,0,1,.33-.88c.32-.58,1.22-.87,2.68-.87s2.28.26,2.61.8a2.77,2.77,0,0,1,.35,1.42,3.56,3.56,0,0,1,.62-.69,6.17,6.17,0,0,1,.94-.73,4.52,4.52,0,0,1,2.61-.8Z" transform="translate(-105.39 -56.91)" fill="#e68429"/><path d="M650.2,450.57v20.77a11.57,11.57,0,0,1-.05,1.21,2.68,2.68,0,0,1-.33.88c-.35.63-1.33.94-3,.94s-2.51-.57-2.69-1.7a5.14,5.14,0,0,1-4.07,1.67,7.71,7.71,0,0,1-5.71-2.73,9.15,9.15,0,0,1,0-12.76,7.71,7.71,0,0,1,5.69-2.75,4.89,4.89,0,0,1,4,1.74v-7.31a11.49,11.49,0,0,1,0-1.2,2.76,2.76,0,0,1,.31-.9,1.48,1.48,0,0,1,.93-.72,6.33,6.33,0,0,1,1.75-.2,6.4,6.4,0,0,1,1.76.2,1.46,1.46,0,0,1,.92.74,2.89,2.89,0,0,1,.32.92,11.21,11.21,0,0,1,.05,1.2Zm-10.48,17.71c1.72,0,2.86-.31,3.43-.94a3,3,0,0,0,.85-2.07,3.23,3.23,0,0,0-.81-2.1,2.76,2.76,0,0,0-2.21-1,2.81,2.81,0,0,0-2.23,1,3.12,3.12,0,0,0-.84,2.1,3,3,0,0,0,.91,2.09Z" transform="translate(-105.39 -56.91)" fill="#e68429"/><path d="M671.59,465.22a9,9,0,0,1-1.5,5.13,9.39,9.39,0,0,1-3.64,3.31,9.79,9.79,0,0,1-4.43,1.06,9.56,9.56,0,0,1-4.46-1.13,9.79,9.79,0,0,1-3.63-3.34,8.77,8.77,0,0,1-1.48-5,9,9,0,0,1,2.92-6.89,9.56,9.56,0,0,1,13.33,0,9,9,0,0,1,2.89,6.87Zm-10.76,3.37a5.7,5.7,0,0,0,3.45-.86,3.06,3.06,0,0,0,1.15-2.58,3,3,0,0,0-1.08-2.54,3.73,3.73,0,0,0-2.33-.84,3.66,3.66,0,0,0-2.34.87,3.12,3.12,0,0,0-1.07,2.56,3,3,0,0,0,1.11,2.54l1.11.86Z" transform="translate(-105.39 -56.91)" fill="#e68429"/></svg>