<?xml version="1.0" encoding="UTF-8"?>
<!DOCTYPE svg PUBLIC "-//W3C//DTD SVG 1.1//EN" "http://www.w3.org/Graphics/SVG/1.1/DTD/svg11.dtd">
<!-- Creator: CorelDRAW (Versão OEM) -->
<svg xmlns="http://www.w3.org/2000/svg" xml:space="preserve" width="297mm" height="210mm" version="1.1" style="shape-rendering:geometricPrecision; text-rendering:geometricPrecision; image-rendering:optimizeQuality; fill-rule:evenodd; clip-rule:evenodd"
viewBox="0 0 29700 21000"
 xmlns:xlink="http://www.w3.org/1999/xlink"
 xmlns:xodm="http://www.corel.com/coreldraw/odm/2003">
 <defs>
  <style type="text/css">
   <![CDATA[
    .fil2 {fill:#09BA45}
    .fil3 {fill:#4FD236}
    .fil4 {fill:black;fill-rule:nonzero}
    .fil0 {fill:#5F2EE6;fill-rule:nonzero}
    .fil5 {fill:#5F2EE6;fill-rule:nonzero}
    .fil1 {fill:#E68429;fill-rule:nonzero}
   ]]>
  </style>
 </defs>
 <g id="Camada_x0020_1">
  <metadata id="CorelCorpID_0Corel-Layer"/>
  <g id="_2272709754960">
   <g>
    <path class="fil0" d="M6312.38 19510.49c-50.02,0 -85.59,-7.52 -106.71,-22.5 -21.13,-15.02 -33.91,-34.47 -38.37,-58.39 -4.44,-23.89 -6.67,-48.07 -6.67,-72.53l0 -860.52c0,-24.46 2.23,-48.36 6.67,-71.71 4.46,-23.36 17.24,-42.53 38.37,-57.54 21.12,-15.01 57.25,-22.51 108.38,-22.51l331.86 0c42.27,0 87.85,8.63 136.77,25.85 48.91,17.22 95.34,43.63 139.25,79.22 43.91,35.57 79.77,80.05 107.56,133.41 27.8,53.35 41.68,116.74 41.68,190.12 0,72.24 -13.88,135.07 -41.68,188.42 -27.79,53.39 -63.65,97.58 -107.56,132.59 -43.91,35.03 -90.34,61.15 -139.25,78.38 -48.92,17.24 -95.06,25.87 -138.41,25.87l-178.44 0 0 160.09c0,24.46 -2.24,48.35 -6.68,71.71 -4.46,23.35 -17.24,42.52 -38.36,57.54 -21.13,14.98 -57.26,22.5 -108.41,22.5zm153.45 -617.05l180.08 0c14.48,0 31.13,-3.61 50.05,-10.83 18.89,-7.23 35.57,-19.73 50.02,-37.52 14.45,-17.78 21.68,-42.24 21.68,-73.37 0,-23.36 -5.56,-44.2 -16.68,-62.55 -11.11,-18.35 -25.84,-32.79 -44.19,-43.37 -18.35,-10.55 -39.19,-15.83 -62.52,-15.83l-178.44 0 0 243.47zm828.83 618.72c-50.05,0 -85.62,-7.52 -106.74,-22.51 -21.12,-15.01 -33.65,-34.46 -37.52,-58.38 -3.9,-23.9 -5.85,-48.07 -5.85,-72.53l0 -543.67c0,-25.57 2.23,-49.74 6.67,-72.53 4.46,-22.82 17.24,-41.42 38.37,-55.87 21.12,-14.45 56.69,-21.69 106.73,-21.69 48.92,0 83.64,6.67 104.23,20.02 20.55,13.34 33.08,28.08 37.52,44.19 4.44,16.12 6.67,28.62 6.67,37.52l-26.69 -10c0,0 4.44,-5.01 13.35,-15.02 8.9,-10.01 21.96,-21.68 39.19,-35.03 17.22,-13.32 37.8,-25 61.69,-35.01 23.92,-10.01 50.87,-15.01 80.9,-15.01 10.01,0 22.5,0.85 37.52,2.51 15.01,1.67 31.13,4.73 48.35,9.17 17.25,4.44 33.36,11.11 48.38,20.02 14.98,8.88 27.23,20.55 36.67,35 9.45,14.45 14.19,32.26 14.19,53.38 0,55.59 -11.96,102.84 -35.88,141.75 -23.89,38.9 -55.3,58.36 -94.21,58.36 -21.12,0 -36.13,-1.39 -45.01,-4.16 -8.91,-2.8 -15.3,-5.57 -19.2,-8.34 -3.88,-2.77 -8.34,-5.57 -13.32,-8.34 -5.01,-2.77 -14.19,-4.16 -27.54,-4.16 -16.66,0 -31.95,1.93 -45.86,5.83 -13.89,3.9 -26.13,9.72 -36.68,17.5 -10.57,7.78 -18.63,16.96 -24.17,27.51 -5.57,10.58 -8.34,21.97 -8.34,34.21l0 325.2c0,24.45 -2.24,48.35 -6.68,71.7 -4.44,23.33 -17.24,42.25 -38.36,56.69 -21.13,14.45 -57.26,21.69 -108.38,21.69zm937.21 15.01c-51.13,0 -102.84,-10.29 -155.09,-30.84 -52.26,-20.59 -100.32,-50.05 -144.26,-88.39 -43.91,-38.37 -78.92,-84.51 -105.05,-138.44 -26.12,-53.92 -39.19,-114.23 -39.19,-180.93 0,-61.16 11.68,-118.41 35.01,-171.77 23.35,-53.36 55.31,-100.35 95.91,-140.92 40.57,-40.58 87.26,-72.53 140.07,-95.89 52.82,-23.35 109.23,-35.03 169.26,-35.03 82.28,0 156.78,19.74 223.49,59.21 66.7,39.47 120.05,92.55 160.09,159.27 40.01,66.7 60.03,141.18 60.03,223.46 0,70.04 -13.35,132.3 -40.01,186.79 -26.69,54.46 -61.72,100.6 -105.07,138.41 -43.37,37.8 -90.91,66.42 -142.59,85.87 -51.69,19.48 -102.56,29.2 -152.6,29.2zm-3.34 -305.2c16.68,0 35.88,-4.15 57.54,-12.49 21.69,-8.35 40.58,-22.51 56.72,-42.53 16.12,-20.02 24.17,-47.25 24.17,-81.72 0,-27.79 -5.85,-51.68 -17.52,-71.7 -11.66,-20.02 -28.06,-35.57 -49.18,-46.71 -21.12,-11.11 -45.6,-16.66 -73.4,-16.66 -24.46,0 -46.68,5.83 -66.7,17.51 -19.99,11.67 -36.13,27.79 -48.35,48.35 -12.24,20.58 -18.35,44.19 -18.35,70.88 0,33.37 7.78,60.03 23.35,80.05 15.56,20.02 33.91,34.18 55.03,42.53 21.12,8.34 40.03,12.49 56.69,12.49zm908.9 642.07c-38.9,0 -78.66,-5.28 -119.23,-15.86 -40.6,-10.54 -78.13,-24.74 -112.59,-42.52 -34.44,-17.79 -62.24,-36.96 -83.39,-57.54 -21.12,-20.56 -31.67,-40.86 -31.67,-60.85 0,-22.25 4.16,-42.81 12.5,-61.72 8.34,-18.89 20.84,-37.24 37.52,-55.03 17.79,-18.89 33.37,-33.9 46.71,-45.01 13.35,-11.14 29.47,-16.69 48.35,-16.69 16.69,0 31.42,3.88 44.2,11.68 12.78,7.78 25.84,16.4 39.19,25.85 13.34,9.44 29.74,18.06 49.2,25.84 19.45,7.78 44.19,11.68 74.22,11.68 16.65,0 32.23,-3.62 46.68,-10.83 14.45,-7.24 26.97,-17.25 37.52,-30.03 10.58,-12.78 19.17,-27.79 25.85,-45.04 6.67,-17.22 10.01,-35.85 10.01,-55.85l0 -687.08c4.44,-33.37 18.35,-57.26 41.7,-71.71 23.33,-14.45 58.93,-21.69 106.71,-21.69 48.94,0 83.39,7.24 103.4,21.69 20.02,14.45 31.98,33.08 35.86,55.87 3.9,22.79 5.85,46.4 5.85,70.86l0 642.07c0,65.57 -12.53,123.96 -37.52,175.08 -25.03,51.15 -58.11,94.24 -99.25,129.25 -41.14,35.03 -86.15,61.72 -135.07,80.05 -48.91,18.35 -97.83,27.53 -146.75,27.53zm-41.7 -376.9c-48.92,0 -95.88,-11.11 -140.92,-33.34 -45.02,-22.25 -85.31,-52.82 -120.91,-91.72 -35.57,-38.94 -63.65,-83.13 -84.2,-132.59 -20.59,-49.48 -30.85,-101.45 -30.85,-155.93 0,-52.26 10.26,-102.84 30.85,-151.76 20.55,-48.91 48.91,-92.54 85.05,-130.91 36.13,-38.37 76.71,-68.93 121.72,-91.72 45.04,-22.79 91.45,-34.19 139.26,-34.19 48.91,0 89.23,10.01 120.9,30.03 31.7,19.99 56.72,48.35 75.05,85.05 18.35,36.67 31.41,80.3 39.19,130.91 7.8,50.59 11.67,106.43 11.67,167.59 0,84.49 -6.95,157.32 -20.84,218.46 -13.91,61.15 -38.62,108.12 -74.22,140.92 -35.57,32.8 -86.15,49.2 -151.75,49.2zm40.04 -293.5c21.12,0 40.29,-5.57 57.53,-16.68 17.23,-11.11 31.11,-25.59 41.68,-43.37 10.58,-17.79 15.84,-36.68 15.84,-56.7 0,-22.22 -5.26,-42.24 -15.84,-60.03 -10.57,-17.78 -24.74,-31.97 -42.52,-42.52 -17.79,-10.57 -37.81,-15.86 -60.03,-15.86 -21.12,0 -40.58,5.57 -58.39,16.68 -17.78,11.11 -31.95,25.59 -42.52,43.37 -10.55,17.79 -15.84,37.24 -15.84,58.36 0,20.02 5.57,38.91 16.68,56.7 11.12,17.78 25.85,32.26 44.2,43.37 18.35,11.11 38.08,16.68 59.21,16.68zm670.4 318.52c-50.05,0 -85.62,-7.52 -106.74,-22.51 -21.12,-15.01 -33.64,-34.46 -37.52,-58.38 -3.9,-23.9 -5.85,-48.07 -5.85,-72.53l0 -543.67c0,-25.57 2.23,-49.74 6.67,-72.53 4.47,-22.82 17.25,-41.42 38.37,-55.87 21.12,-14.45 56.69,-21.69 106.74,-21.69 48.91,0 83.64,6.67 104.22,20.02 20.56,13.34 33.08,28.08 37.52,44.19 4.44,16.12 6.67,28.62 6.67,37.52l-26.69 -10c0,0 4.44,-5.01 13.35,-15.02 8.9,-10.01 21.97,-21.68 39.19,-35.03 17.22,-13.32 37.8,-25 61.7,-35.01 23.91,-10.01 50.86,-15.01 80.89,-15.01 10.01,0 22.51,0.85 37.52,2.51 15.01,1.67 31.13,4.73 48.35,9.17 17.25,4.44 33.37,11.11 48.38,20.02 14.99,8.88 27.23,20.55 36.67,35 9.45,14.45 14.2,32.26 14.2,53.38 0,55.59 -11.96,102.84 -35.88,141.75 -23.9,38.9 -55.31,58.36 -94.22,58.36 -21.12,0 -36.13,-1.39 -45.01,-4.16 -8.91,-2.8 -15.3,-5.57 -19.2,-8.34 -3.87,-2.77 -8.34,-5.57 -13.32,-8.34 -5,-2.77 -14.19,-4.16 -27.54,-4.16 -16.65,0 -31.95,1.93 -45.86,5.83 -13.88,3.9 -26.12,9.72 -36.67,17.5 -10.58,7.78 -18.64,16.96 -24.18,27.51 -5.57,10.58 -8.34,21.97 -8.34,34.21l0 325.2c0,24.45 -2.23,48.35 -6.67,71.7 -4.44,23.33 -17.25,42.25 -38.37,56.69 -21.12,14.45 -57.26,21.69 -108.38,21.69zm1197.37 -3.34c-50.02,0 -87,-8.34 -110.9,-25.02 -23.89,-16.68 -35.28,-35.57 -34.18,-56.69l23.35 0c-5.57,7.78 -16.4,18.07 -32.51,30.85 -16.15,12.78 -37.52,24.46 -64.22,35.03 -26.69,10.55 -59.49,15.83 -98.39,15.83 -50.02,0 -98.12,-11.39 -144.26,-34.18 -46.12,-22.79 -87.26,-54.2 -123.4,-94.24 -36.13,-40.01 -64.77,-85.31 -85.89,-135.89 -21.13,-50.61 -31.67,-103.69 -31.67,-159.28 0,-54.48 10.54,-106.73 31.67,-156.75 21.12,-50.05 50.04,-94.78 86.71,-134.25 36.71,-39.48 77.84,-70.61 123.42,-93.4 45.58,-22.79 93.4,-34.18 143.42,-34.18 37.8,0 69.75,5.57 95.88,16.68 26.13,11.11 47.27,23.33 63.39,36.68 16.12,13.34 26.95,24.45 32.52,33.36l-18.35 0c-1.11,-27.8 10.29,-49.48 34.18,-65.03 23.9,-15.58 60.88,-23.36 110.9,-23.36 50.04,0 85.33,7.49 105.89,22.51 20.58,15.01 33.08,34.18 37.55,57.54 4.44,23.35 6.64,47.25 6.64,71.7l0 542.01c0,24.46 -2.2,48.35 -6.64,71.71 -4.47,23.35 -16.97,42.24 -37.55,56.69 -20.56,14.45 -56.41,21.68 -107.56,21.68zm-275.15 -301.86c21.12,0 40.29,-5.54 57.52,-16.66 17.24,-11.13 31.13,-25.87 41.7,-44.19 10.55,-18.35 15.84,-38.09 15.84,-59.21 0,-22.22 -5.29,-42.24 -15.84,-60.03 -10.57,-17.78 -24.74,-32.26 -42.53,-43.37 -17.78,-11.11 -37.8,-16.68 -60.02,-16.68 -22.26,0 -42.53,5.57 -60.88,16.68 -18.35,11.11 -33.08,25.85 -44.19,44.2 -11.12,18.35 -16.69,38.62 -16.69,60.87 0,21.12 5.86,40.58 17.51,58.36 11.67,17.79 26.97,32.24 45.86,43.37 18.91,11.12 39.47,16.66 61.72,16.66zm673.74 305.2c-50.04,0 -85.61,-7.52 -106.74,-22.51 -21.12,-15.01 -33.64,-34.21 -37.52,-57.54 -3.9,-23.35 -5.85,-47.24 -5.85,-71.7l0 -545.34c0,-25.57 2.23,-49.74 6.67,-72.53 4.47,-22.82 17.25,-41.42 38.37,-55.87 21.12,-14.45 57.26,-21.69 108.41,-21.69 50.02,0 86.44,9.73 109.23,29.18 22.79,19.45 34.18,50.87 34.18,94.21l-28.36 -8.31c0,0 4.19,-5.85 12.53,-17.53 8.31,-11.68 20.55,-25.28 36.67,-40.86 16.12,-15.55 35.85,-29.18 59.21,-40.85 23.35,-11.68 50.02,-17.51 80.05,-17.51 34.46,0 66.16,4.44 95.06,13.35 28.89,8.88 55.3,22.51 79.2,40.86 23.92,18.35 44.75,40.85 62.54,67.54 12.24,-14.47 28.9,-31.13 50.05,-50.04 21.12,-18.89 46.4,-35.57 75.86,-50.02 29.46,-14.45 62.54,-21.69 99.22,-21.69 65.6,0 121.47,16.68 167.61,50.02 46.15,33.37 81.15,81.72 105.07,145.11 23.89,63.36 35.85,140.07 35.85,230.13l0 271.84c0,24.46 -2.23,48.35 -6.67,71.7 -4.44,23.33 -17.24,42.53 -38.37,57.54 -21.12,14.99 -57.25,22.51 -108.38,22.51 -50.04,0 -85.61,-7.78 -106.73,-23.35 -21.13,-15.56 -33.65,-35.01 -37.53,-58.36 -3.9,-23.36 -5.85,-47.25 -5.85,-71.71l0 -271.84c0,-26.69 -3.05,-48.63 -9.16,-65.88 -6.11,-17.22 -15.01,-30.28 -26.69,-39.19 -11.68,-8.88 -26.41,-13.34 -44.19,-13.34 -18.89,0 -34.19,3.9 -45.87,11.67 -11.65,7.78 -19.99,20.31 -24.99,37.53 -5.01,17.24 -7.52,40.85 -7.52,70.88l0 271.84c0,24.46 -2.21,48.35 -6.68,71.7 -4.44,23.33 -17.22,42.53 -38.34,57.54 -21.12,14.99 -57.26,22.51 -108.41,22.51 -50.02,0 -85.61,-7.78 -106.73,-23.35 -21.12,-15.56 -33.62,-35.01 -37.52,-58.36 -3.88,-23.36 -5.83,-47.25 -5.83,-71.71l0 -271.84c0,-26.69 -2.77,-48.91 -8.34,-66.7 -5.57,-17.78 -14.17,-30.85 -25.85,-39.19 -11.67,-8.34 -26.97,-12.52 -45.86,-12.52 -22.25,0 -38.9,5.57 -50.04,16.68 -11.12,11.11 -18.61,25.56 -22.51,43.37 -3.88,17.79 -5.83,37.24 -5.83,58.36l0 275.18c0,24.45 -2.23,48.35 -6.67,71.7 -4.44,23.33 -17.25,42.25 -38.37,56.69 -21.12,14.45 -57.25,21.69 -108.38,21.69zm1849.43 -3.34c-50.02,0 -87.01,-8.34 -110.9,-25.02 -23.89,-16.68 -35.29,-35.57 -34.18,-56.69l23.35 0c-5.57,7.78 -16.4,18.07 -32.52,30.85 -16.14,12.78 -37.52,24.46 -64.21,35.03 -26.69,10.55 -59.49,15.83 -98.4,15.83 -50.02,0 -98.11,-11.39 -144.25,-34.18 -46.12,-22.79 -87.26,-54.2 -123.4,-94.24 -36.13,-40.01 -64.78,-85.31 -85.9,-135.89 -21.12,-50.61 -31.67,-103.69 -31.67,-159.28 0,-54.48 10.55,-106.73 31.67,-156.75 21.12,-50.05 50.05,-94.78 86.72,-134.25 36.7,-39.48 77.84,-70.61 123.42,-93.4 45.58,-22.79 93.39,-34.18 143.41,-34.18 37.81,0 69.76,5.57 95.89,16.68 26.12,11.11 47.27,23.33 63.39,36.68 16.11,13.34 26.94,24.45 32.51,33.36l-18.35 0c-1.1,-27.8 10.3,-49.48 34.19,-65.03 23.89,-15.58 60.87,-23.36 110.89,-23.36 50.05,0 85.34,7.49 105.9,22.51 20.58,15.01 33.08,34.18 37.54,57.54 4.44,23.35 6.65,47.25 6.65,71.7l0 542.01c0,24.46 -2.21,48.35 -6.65,71.71 -4.46,23.35 -16.96,42.24 -37.54,56.69 -20.56,14.45 -56.41,21.68 -107.56,21.68zm-275.15 -301.86c21.12,0 40.29,-5.54 57.51,-16.66 17.25,-11.13 31.13,-25.87 41.71,-44.19 10.55,-18.35 15.83,-38.09 15.83,-59.21 0,-22.22 -5.28,-42.24 -15.83,-60.03 -10.58,-17.78 -24.74,-32.26 -42.53,-43.37 -17.78,-11.11 -37.8,-16.68 -60.03,-16.68 -22.25,0 -42.52,5.57 -60.87,16.68 -18.35,11.11 -33.08,25.85 -44.2,44.2 -11.11,18.35 -16.68,38.62 -16.68,60.87 0,21.12 5.85,40.58 17.5,58.36 11.68,17.79 26.98,32.24 45.87,43.37 18.91,11.12 39.47,16.66 61.72,16.66zm1083.96 305.2c-50.02,0 -85.59,-7.52 -106.71,-22.51 -21.13,-15.01 -33.93,-34.46 -38.37,-58.38 -4.44,-23.9 -6.67,-48.07 -6.67,-72.53l0 -862.19c0,-57.83 11.39,-97.55 34.18,-119.24 22.79,-21.69 63.65,-32.52 122.57,-32.52l610.38 0c25.56,0 49.76,2.21 72.55,6.68 22.79,4.43 41.68,17.22 56.69,38.34 15.02,21.12 22.51,57.25 22.51,108.4 0,50.02 -7.49,85.62 -22.51,106.74 -15.01,21.12 -34.18,33.9 -57.54,38.34 -23.35,4.47 -47.81,6.68 -73.37,6.68l-460.26 0 0 148.41 308.51 0c25.56,0 48.35,1.95 68.37,5.86 20.01,3.87 36.13,14.73 48.35,32.51 12.24,17.79 18.35,48.92 18.35,93.39 0,42.25 -6.11,72.53 -18.35,90.88 -12.22,18.35 -28.9,29.18 -50.02,32.52 -21.12,3.34 -44.48,5 -70.04,5l-305.17 0 0 148.42 461.93 0c25.56,0 49.76,2.23 72.55,6.67 22.79,4.47 41.68,17.25 56.69,38.37 15.02,21.12 22.51,57.26 22.51,108.41 0,50.02 -7.49,85.59 -22.51,106.71 -15.01,21.12 -34.18,33.93 -57.54,38.37 -23.35,4.44 -47.81,6.67 -73.37,6.67l-613.71 0zm1200.73 -3.34c-50.02,0 -98.11,-11.39 -144.26,-34.18 -46.12,-22.79 -87.26,-53.92 -123.39,-93.39 -36.14,-39.47 -64.78,-84.77 -85.9,-135.92 -21.12,-51.15 -31.67,-104.51 -31.67,-160.1 0,-53.35 10.55,-105.07 31.67,-155.09 21.12,-50.04 50.04,-94.77 86.72,-134.25 36.7,-39.47 78.12,-70.88 124.24,-94.21 46.14,-23.35 93.67,-35.03 142.59,-35.03 53.36,0 99.5,11.39 138.41,34.18 38.93,22.79 71.17,53.64 96.73,92.55 25.58,38.93 44.76,83.38 57.54,133.43 12.78,50.02 19.73,101.73 20.84,155.09 1.13,54.48 -4.44,107.02 -16.66,157.6 -12.24,50.59 -31.13,96.17 -56.72,136.74 -25.56,40.58 -58.08,72.81 -97.55,96.73 -39.47,23.9 -87,35.85 -142.59,35.85zm40.04 -300.19c21.12,0 40.57,-5.54 58.36,-16.66 17.78,-11.14 32.23,-25.87 43.34,-44.19 11.14,-18.35 16.69,-38.09 16.69,-59.21 0,-22.25 -5.29,-42.24 -15.84,-60.03 -10.57,-17.81 -24.74,-32.26 -42.52,-43.37 -17.79,-11.11 -38.37,-16.68 -61.7,-16.68 -22.25,0 -42.53,5.28 -60.88,15.86 -18.35,10.55 -32.8,25 -43.37,43.35 -10.55,18.35 -15.83,38.62 -15.83,60.87 0,21.12 5.56,40.86 16.68,59.21 11.11,18.32 26.12,33.05 45.01,44.19 18.92,11.12 38.94,16.66 60.06,16.66zm273.48 301.86c-44.45,0 -77.82,-6.67 -100.04,-20.02 -22.25,-13.34 -37.27,-34.46 -45.04,-63.36l0 -992.26c0,-24.46 1.38,-48.38 4.18,-71.71 2.77,-23.35 14.17,-42.52 34.18,-57.54 20,-15.01 55.03,-22.5 105.05,-22.5 51.15,0 87,7.21 107.58,21.66 20.56,14.44 33.06,33.08 37.52,55.87 4.44,22.79 6.68,46.96 6.68,72.55l0 925.56c0,24.46 -2.24,48.35 -6.68,71.71 -4.46,23.35 -16.96,42.52 -37.52,57.54 -20.58,14.98 -55.87,22.5 -105.91,22.5zm628.72 -1.67c-53.35,0 -103.12,-10.57 -149.26,-31.69 -46.15,-21.12 -86.44,-50.87 -120.91,-89.21 -34.46,-38.37 -61.13,-83.1 -80.04,-134.25 -18.89,-51.15 -28.36,-106.74 -28.36,-166.77l0 -271.83c0,-25.57 2.23,-49.74 6.67,-72.53 4.46,-22.82 17.25,-41.71 38.37,-56.72 21.12,-15.01 56.69,-22.51 106.74,-22.51 51.12,0 86.97,7.5 107.55,22.51 20.56,15.01 33.09,34.19 37.53,57.54 4.44,23.35 6.67,47.81 6.67,73.37l0 270.17c0,25.56 4.72,47.25 14.17,65.04 9.44,17.78 23.35,31.41 41.7,40.85 18.32,9.45 39.73,14.17 64.19,14.17 24.45,0 45.58,-4.98 63.39,-14.99 17.78,-10.01 31.67,-23.92 41.68,-41.7 10.01,-17.79 15.01,-38.91 15.01,-63.37l0 -273.5c0,-25.56 2.23,-49.74 6.67,-72.53 4.44,-22.79 17.22,-41.42 38.35,-55.87 21.12,-14.45 56.71,-21.69 106.73,-21.69 51.15,0 87.01,7.5 107.56,22.51 20.59,15.01 33.08,34.19 37.52,57.54 4.47,23.35 6.68,47.25 6.68,71.71l0 548.67c0,24.46 -2.21,47.79 -6.68,70.04 -4.44,22.23 -17.22,40.58 -38.34,55.03 -21.12,14.45 -56.72,21.68 -106.74,21.68 -36.67,0 -65.31,-4.18 -85.87,-12.52 -20.58,-8.32 -35.31,-18.89 -44.19,-31.67 -8.91,-12.78 -14.2,-25.56 -15.86,-38.37 -1.67,-12.78 -2.49,-23.61 -2.49,-32.52l28.36 8.34c0,0 -4.47,5.29 -13.35,15.84 -8.91,10.57 -21.97,22.79 -39.19,36.7 -17.25,13.88 -37.8,26.13 -61.72,36.7 -23.9,10.55 -51.41,15.83 -82.54,15.83zm997.27 11.68c-45.58,0 -93.65,-9.19 -144.26,-27.51 -50.59,-18.35 -98.09,-45.61 -142.57,-81.72 -44.47,-36.13 -80.61,-81.45 -108.4,-135.91 -27.8,-54.49 -41.68,-117.85 -41.68,-190.13 0,-71.16 13.88,-133.68 41.68,-187.6 27.79,-53.92 63.64,-98.68 107.55,-134.25 43.92,-35.57 91.16,-62.55 141.77,-80.9 50.59,-18.35 98.12,-27.51 142.57,-27.51 42.24,0 78.94,4.44 110.07,13.35 31.14,8.88 56.7,18.63 76.72,29.18 20.01,10.57 34.46,18.63 43.37,24.17 22.22,13.35 43.06,28.64 62.52,45.87 19.45,17.24 29.18,40.31 29.18,69.21 0,14.45 -2.78,29.18 -8.32,44.2 -5.57,15.01 -14.47,31.95 -26.69,50.86 -40.04,61.14 -80.05,91.73 -120.08,91.73 -17.79,0 -33.34,-3.06 -46.69,-9.19 -13.34,-6.11 -25.56,-13.06 -36.7,-20.84 -11.11,-7.78 -23.07,-14.73 -35.85,-20.84 -12.78,-6.11 -28.62,-9.19 -47.53,-9.19 -22.23,0 -42.81,5.57 -61.7,16.68 -18.89,11.12 -33.9,25.85 -45.01,44.2 -11.14,18.35 -16.68,39.19 -16.68,62.54 0,23.36 5.54,44.48 16.68,63.37 11.11,18.91 25.84,33.9 44.19,45.04 18.33,11.11 38.06,16.66 59.18,16.66 15.58,0 28.65,-1.67 39.19,-5.01 10.58,-3.31 18.64,-6.93 24.2,-10.83 5.55,-3.9 8.88,-5.83 9.99,-5.83 15.58,-8.9 30.31,-17.24 44.19,-25.02 13.91,-7.77 28.08,-11.68 42.53,-11.68 18.91,0 38.37,6.96 58.38,20.84 20,13.91 42.25,36.42 66.71,67.55 23.35,28.9 36.41,55.87 39.19,80.9 2.77,24.99 -3.62,48.35 -19.18,70.03 -15.57,21.67 -39.47,42.53 -71.7,62.52 -3.34,2.24 -14.73,8.63 -34.21,19.2 -19.46,10.55 -45.3,20.84 -77.53,30.85 -32.24,10.01 -70.61,15.01 -115.08,15.01zm1087.32 -11.68c-50.02,0 -87,-8.34 -110.9,-25.02 -23.89,-16.68 -35.29,-35.57 -34.18,-56.69l23.35 0c-5.57,7.78 -16.4,18.07 -32.51,30.85 -16.15,12.78 -37.53,24.46 -64.22,35.03 -26.69,10.55 -59.49,15.83 -98.39,15.83 -50.02,0 -98.12,-11.39 -144.26,-34.18 -46.12,-22.79 -87.26,-54.2 -123.4,-94.24 -36.13,-40.01 -64.77,-85.31 -85.9,-135.89 -21.12,-50.61 -31.67,-103.69 -31.67,-159.28 0,-54.48 10.55,-106.73 31.67,-156.75 21.13,-50.05 50.05,-94.78 86.72,-134.25 36.7,-39.48 77.84,-70.61 123.42,-93.4 45.58,-22.79 93.4,-34.18 143.42,-34.18 37.8,0 69.75,5.57 95.88,16.68 26.12,11.11 47.27,23.33 63.39,36.68 16.12,13.34 26.95,24.45 32.52,33.36l-18.35 0c-1.11,-27.8 10.29,-49.48 34.18,-65.03 23.89,-15.58 60.88,-23.36 110.9,-23.36 50.04,0 85.33,7.49 105.89,22.51 20.58,15.01 33.08,34.18 37.54,57.54 4.44,23.35 6.65,47.25 6.65,71.7l0 542.01c0,24.46 -2.21,48.35 -6.65,71.71 -4.46,23.35 -16.96,42.24 -37.54,56.69 -20.56,14.45 -56.41,21.68 -107.56,21.68zm-275.15 -301.86c21.12,0 40.29,-5.54 57.51,-16.66 17.25,-11.13 31.14,-25.87 41.71,-44.19 10.55,-18.35 15.83,-38.09 15.83,-59.21 0,-22.22 -5.28,-42.24 -15.83,-60.03 -10.57,-17.78 -24.74,-32.26 -42.53,-43.37 -17.78,-11.11 -37.8,-16.68 -60.03,-16.68 -22.25,0 -42.52,5.57 -60.87,16.68 -18.35,11.11 -33.08,25.85 -44.2,44.2 -11.11,18.35 -16.68,38.62 -16.68,60.87 0,21.12 5.85,40.58 17.51,58.36 11.67,17.79 26.97,32.24 45.86,43.37 18.91,11.12 39.47,16.66 61.72,16.66zm677.08 305.2c-50.05,0 -85.62,-7.52 -106.74,-22.51 -21.12,-15.01 -33.65,-34.46 -37.52,-58.38 -3.9,-23.9 -5.85,-48.07 -5.85,-72.53l0 -543.67c0,-25.57 2.23,-49.74 6.67,-72.53 4.46,-22.82 17.25,-41.42 38.37,-55.87 21.12,-14.45 56.69,-21.69 106.74,-21.69 48.91,0 83.64,6.67 104.22,20.02 20.56,13.34 33.08,28.08 37.52,44.19 4.44,16.12 6.67,28.62 6.67,37.52l-26.69 -10c0,0 4.44,-5.01 13.35,-15.02 8.9,-10.01 21.97,-21.68 39.19,-35.03 17.22,-13.32 37.8,-25 61.69,-35.01 23.92,-10.01 50.87,-15.01 80.9,-15.01 10.01,0 22.51,0.85 37.52,2.51 15.01,1.67 31.13,4.73 48.35,9.17 17.25,4.44 33.36,11.11 48.38,20.02 14.99,8.88 27.23,20.55 36.67,35 9.45,14.45 14.19,32.26 14.19,53.38 0,55.59 -11.96,102.84 -35.87,141.75 -23.9,38.9 -55.31,58.36 -94.22,58.36 -21.12,0 -36.13,-1.39 -45.01,-4.16 -8.91,-2.8 -15.3,-5.57 -19.2,-8.34 -3.88,-2.77 -8.34,-5.57 -13.32,-8.34 -5,-2.77 -14.19,-4.16 -27.54,-4.16 -16.65,0 -31.95,1.93 -45.86,5.83 -13.88,3.9 -26.13,9.72 -36.67,17.5 -10.58,7.78 -18.64,16.96 -24.18,27.51 -5.57,10.58 -8.34,21.97 -8.34,34.21l0 325.2c0,24.45 -2.23,48.35 -6.67,71.7 -4.44,23.33 -17.25,42.25 -38.37,56.69 -21.12,14.45 -57.26,21.69 -108.38,21.69z"/>
    <path class="fil0" d="M19803.84 19510.49c-50.04,0 -85.61,-7.52 -106.73,-22.5 -21.13,-15.02 -33.91,-34.47 -38.37,-58.39 -4.44,-23.89 -6.68,-48.64 -6.68,-74.2l0 -860.52c0,-24.46 2.24,-48.35 6.68,-71.71 4.46,-23.35 17.24,-42.52 38.37,-57.54 21.12,-15.01 57.25,-22.51 108.4,-22.51l390.23 0c67.8,0 128.4,16.4 181.78,49.2 53.36,32.8 95.6,76.43 126.73,130.92 31.13,54.46 46.71,113.38 46.71,176.77 0,21.12 -1.95,42.53 -5.85,64.19 -3.88,21.69 -10.01,42.81 -18.35,63.39 -8.32,20.56 -18.61,40.29 -30.85,59.18 18.91,23.36 35.03,48.66 48.38,75.89 13.34,27.23 23.32,55.03 30,83.39 6.67,28.35 10.01,56.97 10.01,85.87 -1.11,53.38 -11.4,103.12 -30.85,149.26 -19.46,46.15 -46.43,86.16 -80.87,120.09 -34.47,33.9 -73.94,60.59 -118.42,80.04 -44.47,19.46 -91.72,29.18 -141.74,29.18l-408.58 0zm153.43 -305.2l238.47 0c7.77,0 18.35,-1.38 31.69,-4.16 13.32,-2.77 25.28,-10.54 35.86,-23.35 10.55,-12.78 15.83,-34.18 15.83,-64.19 0,-15.57 -1.38,-28.64 -4.18,-39.19 -2.77,-10.57 -6.93,-18.91 -12.5,-25.02 -5.57,-6.11 -11.96,-10.57 -19.17,-13.34 -7.24,-2.78 -15.58,-4.73 -25.02,-5.83 -9.45,-1.13 -19.74,-1.67 -30.85,-1.67l-21.69 0c-44.48,0 -76.14,-9.47 -95.06,-28.36 -18.89,-18.89 -28.33,-52.25 -28.33,-100.06 0,-45.58 10.26,-77.53 30.85,-95.88 20.55,-18.35 54.2,-27.52 100.88,-27.52l20.02 0c8.88,0 16.68,-0.56 23.35,-1.66 6.68,-1.13 11.94,-3.91 15.84,-8.35 3.9,-4.46 6.95,-10.85 9.16,-19.19 2.23,-8.32 3.34,-19.71 3.34,-34.19 0,-25.56 -5.83,-42.78 -17.5,-51.69 -11.68,-8.9 -34.75,-13.34 -69.22,-13.34l-201.77 0 0 556.99zm860.52 306.87c-50.04,0 -85.62,-7.52 -106.74,-22.51 -21.12,-15.01 -33.64,-34.46 -37.52,-58.38 -3.9,-23.9 -5.85,-48.07 -5.85,-72.53l0 -543.67c0,-25.57 2.23,-49.74 6.67,-72.53 4.47,-22.82 17.25,-41.42 38.37,-55.87 21.12,-14.45 56.69,-21.69 106.74,-21.69 48.92,0 83.64,6.67 104.22,20.02 20.56,13.34 33.08,28.08 37.52,44.19 4.44,16.12 6.68,28.62 6.68,37.52l-26.69 -10c0,0 4.44,-5.01 13.34,-15.02 8.91,-10.01 21.97,-21.68 39.19,-35.03 17.22,-13.32 37.8,-25 61.7,-35.01 23.92,-10.01 50.86,-15.01 80.89,-15.01 10.01,0 22.51,0.85 37.52,2.51 15.02,1.67 31.13,4.73 48.35,9.17 17.25,4.44 33.37,11.11 48.38,20.02 14.99,8.88 27.23,20.55 36.68,35 9.44,14.45 14.19,32.26 14.19,53.38 0,55.59 -11.96,102.84 -35.88,141.75 -23.89,38.9 -55.31,58.36 -94.21,58.36 -21.13,0 -36.14,-1.39 -45.02,-4.16 -8.91,-2.8 -15.3,-5.57 -19.2,-8.34 -3.87,-2.77 -8.34,-5.57 -13.32,-8.34 -5,-2.77 -14.19,-4.16 -27.53,-4.16 -16.66,0 -31.96,1.93 -45.87,5.83 -13.88,3.9 -26.12,9.72 -36.67,17.5 -10.57,7.78 -18.63,16.96 -24.18,27.51 -5.57,10.58 -8.34,21.97 -8.34,34.21l0 325.2c0,24.45 -2.23,48.35 -6.67,71.7 -4.44,23.33 -17.25,42.25 -38.37,56.69 -21.12,14.45 -57.26,21.69 -108.38,21.69zm728.77 0c-50.05,0 -85.62,-7.52 -106.74,-22.51 -21.12,-15.01 -33.65,-34.21 -37.52,-57.54 -3.9,-23.35 -5.86,-47.24 -5.86,-71.7l0 -543.68c0,-24.45 2.24,-48.07 6.68,-70.86 4.46,-22.81 17.24,-41.7 38.37,-56.71 21.12,-15.02 56.69,-22.51 106.71,-22.51 50.04,0 85.33,7.49 105.92,22.51 20.55,15.01 33.05,34.18 37.52,57.54 4.44,23.35 6.67,47.81 6.67,73.37l0 542.01c0,24.45 -2.23,48.35 -6.67,71.7 -4.47,23.33 -16.97,42.25 -37.52,56.69 -20.59,14.45 -56.44,21.69 -107.56,21.69zm0 -927.23c-50.05,0 -85.62,-7.49 -106.74,-22.5 -21.12,-15.02 -33.65,-34.19 -37.52,-57.54 -3.9,-23.36 -5.86,-47.25 -5.86,-71.71 0,-25.59 2.24,-49.76 6.68,-72.55 4.46,-22.79 17.24,-41.43 38.37,-55.87 21.12,-14.45 56.69,-21.66 106.71,-21.66 50.04,0 85.33,7.49 105.92,22.5 20.55,15.02 33.05,34.19 37.52,57.54 4.44,23.33 6.67,47.25 6.67,71.71 0,24.46 -2.23,48.35 -6.67,71.7 -4.47,23.36 -16.97,42.25 -37.52,56.7 -20.59,14.45 -56.44,21.68 -107.56,21.68zm410.24 925.56c-50.05,0 -85.62,-7.52 -106.74,-22.5 -21.12,-15.02 -33.64,-34.19 -37.52,-57.54 -3.9,-23.36 -5.85,-47.25 -5.85,-71.71l0 -548.68c0,-24.46 2.23,-47.81 6.67,-70.04 4.47,-22.22 17.25,-40.29 38.37,-54.2 21.12,-13.88 56.69,-20.84 106.74,-20.84 45.58,0 78.63,5.83 99.22,17.5 20.55,11.68 33.62,25.85 39.19,42.53 5.57,16.68 8.05,31.98 7.49,45.86 -0.54,13.91 0.28,22.51 2.52,25.85l-13.35 10c-1.1,-16.68 5.29,-33.33 19.17,-50.01 13.91,-16.69 32.26,-31.98 55.05,-45.87 22.79,-13.91 47.25,-25.02 73.38,-33.36 26.12,-8.34 50.86,-12.5 74.19,-12.5 55.59,0 104.51,10.57 146.78,31.7 42.24,21.12 77.53,50.84 105.89,89.21 28.33,38.36 49.73,83.1 64.21,134.25 14.45,51.14 21.66,106.73 21.66,166.76l0 273.51c0,24.46 -2.21,48.35 -6.67,71.7 -4.44,23.33 -16.94,42.25 -37.52,56.7 -20.56,14.45 -56.41,21.68 -107.56,21.68 -51.15,0 -87.29,-7.52 -108.41,-22.5 -21.12,-15.02 -33.9,-34.19 -38.34,-57.54 -4.44,-23.36 -6.68,-47.25 -6.68,-71.71l0 -271.84c0,-25.56 -4.72,-47.25 -14.16,-65.03 -9.47,-17.79 -22.79,-31.41 -40.04,-40.86 -17.22,-9.47 -38.62,-14.19 -64.21,-14.19 -24.46,0 -45.86,5 -64.19,15.01 -18.35,10.01 -32.54,23.92 -42.52,41.71 -10.01,17.78 -15.02,38.9 -15.02,63.36l0 273.51c0,24.46 -2.23,48.35 -6.67,71.7 -4.44,23.33 -16.96,42.25 -37.52,56.7 -20.58,14.45 -56.44,21.68 -107.56,21.68zm1222.39 10.01c-45.58,0 -93.65,-9.19 -144.26,-27.51 -50.58,-18.35 -98.09,-45.61 -142.56,-81.72 -44.48,-36.13 -80.61,-81.45 -108.41,-135.91 -27.79,-54.49 -41.68,-117.85 -41.68,-190.13 0,-71.16 13.89,-133.68 41.68,-187.6 27.8,-53.92 63.65,-98.68 107.56,-134.25 43.91,-35.57 91.16,-62.55 141.77,-80.9 50.59,-18.35 98.12,-27.51 142.57,-27.51 42.24,0 78.94,4.44 110.07,13.35 31.13,8.88 56.69,18.63 76.71,29.18 20.02,10.57 34.47,18.63 43.37,24.17 22.23,13.35 43.07,28.64 62.52,45.87 19.46,17.24 29.18,40.31 29.18,69.21 0,14.45 -2.77,29.18 -8.31,44.2 -5.57,15.01 -14.48,31.95 -26.69,50.86 -40.04,61.14 -80.05,91.73 -120.09,91.73 -17.78,0 -33.33,-3.06 -46.68,-9.19 -13.35,-6.11 -25.56,-13.06 -36.7,-20.84 -11.11,-7.78 -23.07,-14.73 -35.85,-20.84 -12.78,-6.11 -28.62,-9.19 -47.53,-9.19 -22.23,0 -42.81,5.57 -61.7,16.68 -18.89,11.12 -33.9,25.85 -45.02,44.2 -11.13,18.35 -16.68,39.19 -16.68,62.54 0,23.36 5.55,44.48 16.68,63.37 11.12,18.91 25.85,33.9 44.2,45.04 18.32,11.11 38.06,16.66 59.18,16.66 15.58,0 28.64,-1.67 39.19,-5.01 10.57,-3.31 18.63,-6.93 24.2,-10.83 5.54,-3.9 8.88,-5.83 9.98,-5.83 15.58,-8.9 30.31,-17.24 44.2,-25.02 13.91,-7.77 28.08,-11.68 42.52,-11.68 18.92,0 38.37,6.96 58.39,20.84 19.99,13.91 42.24,36.42 66.7,67.55 23.36,28.9 36.42,55.87 39.19,80.9 2.77,24.99 -3.62,48.35 -19.17,70.03 -15.58,21.67 -39.47,42.53 -71.71,62.52 -3.33,2.24 -14.73,8.63 -34.21,19.2 -19.45,10.55 -45.29,20.84 -77.53,30.85 -32.23,10.01 -70.6,15.01 -115.08,15.01zm1087.32 -11.68c-50.02,0 -87,-8.34 -110.89,-25.02 -23.89,-16.68 -35.29,-35.57 -34.19,-56.69l23.36 0c-5.57,7.78 -16.4,18.07 -32.52,30.85 -16.14,12.78 -37.52,24.46 -64.21,35.03 -26.69,10.55 -59.49,15.83 -98.4,15.83 -50.02,0 -98.11,-11.39 -144.26,-34.18 -46.12,-22.79 -87.26,-54.2 -123.39,-94.24 -36.14,-40.01 -64.78,-85.31 -85.9,-135.89 -21.12,-50.61 -31.67,-103.69 -31.67,-159.28 0,-54.48 10.55,-106.73 31.67,-156.75 21.12,-50.05 50.05,-94.78 86.72,-134.25 36.7,-39.48 77.84,-70.61 123.42,-93.4 45.58,-22.79 93.39,-34.18 143.41,-34.18 37.81,0 69.76,5.57 95.88,16.68 26.13,11.11 47.28,23.33 63.4,36.68 16.11,13.34 26.94,24.45 32.51,33.36l-18.35 0c-1.1,-27.8 10.29,-49.48 34.19,-65.03 23.89,-15.58 60.87,-23.36 110.89,-23.36 50.05,0 85.34,7.49 105.89,22.51 20.59,15.01 33.09,34.18 37.55,57.54 4.44,23.35 6.65,47.25 6.65,71.7l0 542.01c0,24.46 -2.21,48.35 -6.65,71.71 -4.46,23.35 -16.96,42.24 -37.55,56.69 -20.55,14.45 -56.41,21.68 -107.56,21.68zm-275.14 -301.86c21.12,0 40.29,-5.54 57.51,-16.66 17.25,-11.13 31.13,-25.87 41.71,-44.19 10.54,-18.35 15.83,-38.09 15.83,-59.21 0,-22.22 -5.29,-42.24 -15.83,-60.03 -10.58,-17.78 -24.74,-32.26 -42.53,-43.37 -17.79,-11.11 -37.8,-16.68 -60.03,-16.68 -22.25,0 -42.53,5.57 -60.88,16.68 -18.35,11.11 -33.08,25.85 -44.19,44.2 -11.11,18.35 -16.68,38.62 -16.68,60.87 0,21.12 5.85,40.58 17.5,58.36 11.68,17.79 26.98,32.24 45.86,43.37 18.92,11.12 39.48,16.66 61.73,16.66zm677.07 303.53c-50.04,0 -85.61,-7.52 -106.73,-22.5 -21.13,-15.02 -33.65,-34.19 -37.53,-57.54 -3.9,-23.36 -5.85,-47.25 -5.85,-71.71l0 -548.68c0,-24.46 2.24,-47.81 6.68,-70.04 4.46,-22.22 17.24,-40.29 38.36,-54.2 21.13,-13.88 56.7,-20.84 106.74,-20.84 45.58,0 78.64,5.83 99.22,17.5 20.56,11.68 33.62,25.85 39.19,42.53 5.57,16.68 8.06,31.98 7.49,45.86 -0.53,13.91 0.29,22.51 2.52,25.85l-13.35 10c-1.1,-16.68 5.29,-33.33 19.17,-50.01 13.91,-16.69 32.26,-31.98 55.05,-45.87 22.79,-13.91 47.25,-25.02 73.38,-33.36 26.13,-8.34 50.87,-12.5 74.19,-12.5 55.59,0 104.51,10.57 146.78,31.7 42.24,21.12 77.53,50.84 105.89,89.21 28.33,38.36 49.74,83.1 64.21,134.25 14.45,51.14 21.66,106.73 21.66,166.76l0 273.51c0,24.46 -2.2,48.35 -6.67,71.7 -4.44,23.33 -16.94,42.25 -37.52,56.7 -20.56,14.45 -56.41,21.68 -107.56,21.68 -51.15,0 -87.28,-7.52 -108.41,-22.5 -21.12,-15.02 -33.9,-34.19 -38.34,-57.54 -4.44,-23.36 -6.67,-47.25 -6.67,-71.71l0 -271.84c0,-25.56 -4.72,-47.25 -14.17,-65.03 -9.47,-17.79 -22.79,-31.41 -40.03,-40.86 -17.23,-9.47 -38.63,-14.19 -64.22,-14.19 -24.45,0 -45.86,5 -64.18,15.01 -18.35,10.01 -32.55,23.92 -42.53,41.71 -10.01,17.78 -15.01,38.9 -15.01,63.36l0 273.51c0,24.46 -2.24,48.35 -6.68,71.7 -4.44,23.33 -16.96,42.25 -37.52,56.7 -20.58,14.45 -56.43,21.68 -107.56,21.68zm1154.03 -1.67c-50.02,0 -98.12,-11.39 -144.26,-34.18 -46.12,-22.79 -87.26,-53.92 -123.4,-93.39 -36.13,-39.47 -64.77,-84.77 -85.9,-135.92 -21.12,-51.15 -31.66,-104.51 -31.66,-160.1 0,-53.35 10.54,-105.07 31.66,-155.09 21.13,-50.04 50.05,-94.77 86.72,-134.25 36.7,-39.47 78.13,-70.88 124.25,-94.21 46.14,-23.35 93.67,-35.03 142.59,-35.03 53.35,0 99.5,11.39 138.4,34.18 38.94,22.79 71.17,53.64 96.73,92.55 25.59,38.93 44.76,83.38 57.54,133.43 12.78,50.02 19.74,101.73 20.84,155.09 1.13,54.48 -4.44,107.02 -16.65,157.6 -12.25,50.59 -31.13,96.17 -56.72,136.74 -25.56,40.58 -58.08,72.81 -97.55,96.73 -39.47,23.9 -87,35.85 -142.59,35.85zm40.03 -300.19c21.13,0 40.58,-5.54 58.36,-16.66 17.79,-11.14 32.24,-25.87 43.35,-44.19 11.14,-18.35 16.68,-38.09 16.68,-59.21 0,-22.25 -5.28,-42.24 -15.83,-60.03 -10.58,-17.81 -24.74,-32.26 -42.53,-43.37 -17.78,-11.11 -38.37,-16.68 -61.69,-16.68 -22.26,0 -42.53,5.28 -60.88,15.86 -18.35,10.55 -32.8,25 -43.37,43.35 -10.55,18.35 -15.84,38.62 -15.84,60.87 0,21.12 5.57,40.86 16.68,59.21 11.12,18.32 26.13,33.05 45.02,44.19 18.91,11.12 38.93,16.66 60.05,16.66zm273.48 301.86c-44.45,0 -77.81,-6.67 -100.04,-20.02 -22.25,-13.34 -37.26,-34.46 -45.04,-63.36l0 -992.26c0,-24.46 1.39,-48.38 4.19,-71.71 2.77,-23.35 14.16,-42.52 34.18,-57.54 19.99,-15.01 55.02,-22.5 105.04,-22.5 51.15,0 87.01,7.21 107.59,21.66 20.56,14.44 33.06,33.08 37.52,55.87 4.44,22.79 6.67,46.96 6.67,72.55l0 925.56c0,24.46 -2.23,48.35 -6.67,71.71 -4.46,23.35 -16.96,42.52 -37.52,57.54 -20.58,14.98 -55.87,22.5 -105.92,22.5zm667.07 16.68c-51.12,0 -102.84,-10.29 -155.09,-30.84 -52.25,-20.59 -100.32,-50.05 -144.26,-88.39 -43.91,-38.37 -78.92,-84.51 -105.04,-138.44 -26.13,-53.92 -39.19,-114.23 -39.19,-180.93 0,-61.16 11.68,-118.41 35,-171.77 23.36,-53.36 55.31,-100.35 95.91,-140.92 40.58,-40.58 87.26,-72.53 140.08,-95.89 52.81,-23.35 109.23,-35.03 169.25,-35.03 82.28,0 156.79,19.74 223.49,59.21 66.7,39.47 120.06,92.55 160.09,159.27 40.01,66.7 60.03,141.18 60.03,223.46 0,70.04 -13.34,132.3 -40.01,186.79 -26.69,54.46 -61.72,100.6 -105.07,138.41 -43.37,37.8 -90.9,66.42 -142.59,85.87 -51.69,19.48 -102.55,29.2 -152.6,29.2zm-3.34 -305.2c16.69,0 35.88,-4.15 57.54,-12.49 21.69,-8.35 40.58,-22.51 56.72,-42.53 16.12,-20.02 24.18,-47.25 24.18,-81.72 0,-27.79 -5.85,-51.68 -17.53,-71.7 -11.65,-20.02 -28.05,-35.57 -49.17,-46.71 -21.13,-11.11 -45.61,-16.66 -73.4,-16.66 -24.46,0 -46.69,5.83 -66.71,17.51 -19.99,11.67 -36.13,27.79 -48.35,48.35 -12.24,20.58 -18.35,44.19 -18.35,70.88 0,33.37 7.78,60.03 23.36,80.05 15.55,20.02 33.9,34.18 55.02,42.53 21.12,8.34 40.04,12.49 56.69,12.49z"/>
   </g>
   <g>
    <path class="fil1" d="M19098.9 13762.47l0 -563.23c112.1,-91.28 213.42,-212.83 302.17,-376.72 138.89,-256.6 186.71,-697.41 163.68,-1117.84 -23.58,-430.26 -124.52,-881.9 -279.92,-1121.22 -56.05,-86.31 -117.72,-162.25 -185.93,-228.6l0 -825.21 33.56 -3.13c130.28,-12.14 255.31,-29.26 374.68,-51.23 130.53,-24.04 249.84,-51.53 357.32,-82.38 449,-128.88 681.96,-443.38 791.9,-818.15 85.49,-291.55 83.54,-610.66 59.08,-877.65 -22.28,-242.99 -45.86,-451.3 -86.41,-633.31 -52.69,-236.5 -133.74,-429.88 -267.19,-585.38 -105.17,-122.52 -207.11,-221.44 -329.99,-300.64 -142.18,-91.62 -296.14,-147.15 -485.37,-166.3 -127.99,-12.94 -248.99,-19.45 -362.89,-19.45l0 2c-14.89,0 -29.82,0.05 -44.79,0.23 5.6,-35.83 11.76,-71.48 18.53,-107 38.99,-204.59 151.04,-372.67 336.15,-504.2 185.12,-131.53 501.77,-193.97 949.97,-197.31l3445.49 -25.66c594.31,-4.41 1125.38,169.44 1593.01,456.8 467.61,287.36 837.89,669.84 1110.7,1147.25 272.82,477.41 383.56,993.8 383.56,1549.18 0,185.11 -17.04,372.67 -51.15,562.66 -34.11,189.97 -87.7,375.11 -160.76,555.35 -73.07,180.24 -214.53,353.19 -321.71,518.81 165.64,204.62 358.23,426.28 475.15,664.99 116.93,238.7 204.6,482.28 263.06,730.71 58.47,248.46 91.09,499.43 87.7,752.66 -6.26,467.71 -74.2,929.36 -244.71,1333.7 -170.51,404.34 -381.27,729.56 -683.13,1026.57 -301.89,297.02 -622.29,531.02 -1012,701.51 -389.71,170.49 -803.94,255.77 -1242.23,255.77l-2610.94 0c-4.44,-54.79 -9.39,-108.92 -14.29,-162.25 -27.93,-304.63 -83.67,-623.15 -237.5,-898.71 -188.48,-337.62 -489.55,-582.92 -982.79,-632.91 -114,-11.52 -234.91,-17.94 -363,-18.22 -126.16,-0.28 -252.54,5.52 -378.45,18.17l-400.56 40.34zm2546.16 -841.27l2346.54 0c68.19,0 160.99,-12.37 277.69,-36.52 116.69,-24.13 221.86,-92.81 314.2,-204.63 92.32,-111.79 190.18,-453.56 190.18,-716.65 0,-136.4 -12.35,-302.35 -36.55,-394.77 -24.2,-92.39 -60.9,-165.63 -109.61,-219.22 -48.71,-53.59 -104.89,-118.37 -168.08,-142.57 -63.16,-24.2 -136.53,-41.57 -219.2,-51.15 -82.66,-9.59 -173.26,-14.62 -270.37,-14.62l-189.99 0c-389.38,0 -718.91,-108.67 -884.37,-274.13 -165.46,-165.43 -248.46,-380.93 -248.46,-799.88 0,-399.46 90.14,-653.92 270.38,-814.69 180.24,-160.76 449.3,-215.47 858.52,-215.47l175.39 0c77.94,0 146.13,-4.85 204.6,-14.61 58.46,-9.75 181.75,-59.77 215.83,-98.73 34.09,-38.96 75.74,-95.24 94.99,-168.07 19.25,-72.81 0,-352.61 0,-479.26 0,-224.07 -88.11,-375.37 -190.17,-453.05 -102.05,-77.69 -304.92,-116.93 -606.5,-116.93l-2025.02 0 0 5214.95z"/>
    <path class="fil1" d="M14401.91 17247.87c-438.5,40.32 -756.38,3.21 -953.59,-111.36 -197.23,-114.51 -324.96,-274.73 -383.19,-480.66 -58.23,-205.93 -97.19,-416.05 -116.9,-630.45l-694.43 -7556.71c-46.55,-506.69 21.3,-864.25 203.62,-1072.62 182.3,-208.37 531.67,-336.28 1048.11,-383.73l5349.63 -491.6c224.13,-20.59 437.89,-20.59 641.2,0.02 203.29,20.59 328.02,117.52 476.51,290.5 148.52,173.03 192.17,483.82 233.29,931.97 39.62,432.22 11.6,1014.75 -482.06,1156.44 -200.87,57.67 -414.04,96.68 -637.75,117.57l-4239.47 396.38 145.21 1352.21 2781.04 -248.51c559.89,-50.02 882.13,36.11 1082.62,344.82 208.99,321.86 283.44,1368.2 94.19,1717.77 -197.82,365.36 -580.14,381.19 -1022.19,425.59l-2700.48 271.46 119.55 1377.86 4202.77 -423.41c223.87,-22.56 437.91,-20.55 641.2,0.05 592.38,60.03 716.03,576.53 761.12,1068.46 48.61,529.77 105.35,1152.49 -533.38,1336.11 -201.05,57.8 -413.63,96.96 -637.78,117.57l-5378.84 494.27z"/>
    <path class="fil1" d="M9649.05 1355.79l0 2471.32c0,113.23 -92.34,205.57 -205.57,205.57l-37.98 0c-113.23,0 -205.57,-92.34 -205.57,-205.57l0 -2471.32c0,-113.23 92.34,-205.58 205.57,-205.58l37.98 0c113.23,0 205.57,92.35 205.57,205.58zm-2169.64 14070.3c-1105.33,0 -1335.98,-400.42 -1335.98,-1350.64l0 -7575.42c0,-951.59 241.96,-1335.99 1350.66,-1335.99l2921.53 0c840.71,0 1711.32,415.05 2404.06,976.25 151.7,122.91 290.57,252.61 416.53,389.28 -535.98,79.02 -923.97,255.59 -1163.75,529.66 -152.63,174.41 -254.64,396.82 -305.92,667.04 -42.45,223.54 -49.76,486.42 -22.02,788.54l336.2 3658.53c-530.4,282.66 -1109.03,456.08 -1679.78,456.08l-1750.51 0 0 1460.71c0,215.25 -19.61,425.8 -58.72,631.27 -39.12,205.52 -151.73,374.39 -337.67,506.51 -185.94,132.12 -324.4,198.18 -774.63,198.18zm1681.12 -5815.85l1130.49 0c209.34,0 486.85,-87.77 631.8,-240.86 90.32,-95.32 183.92,-303.2 176.65,-500.15 -5.31,-143.44 -88.08,-281.23 -147.57,-365.49 -133.43,-188.96 -407.62,-294.83 -670.53,-294.83l-1120.84 0 0 1401.33zm-510.1 537.87l1713.86 0c317.37,0 738.03,-155.14 957.85,-425.77 136.86,-168.49 278.76,-535.95 267.75,-884.09 -8.03,-253.53 -133.5,-497.11 -223.69,-646.04 -202.28,-334.05 -618,-521.17 -1016.59,-521.17l-1699.18 0 0 2477.07zm-578.43 -7863.84l422.18 1585.47c16.99,63.75 4.57,125.86 -35.65,178.16 -40.21,52.3 -97.03,80.3 -162.99,80.3l-39.24 0c-94.45,0 -174.36,-61.39 -198.64,-152.67l-419.67 -1575.67c-29.1,-109.4 36.37,-222.33 145.75,-251.56l36.68 -9.8c109.4,-29.23 222.45,36.39 251.58,145.77zm-1895.64 -129.48l1221.67 2148.21c56.05,98.45 21.41,224.34 -76.99,280.31l-33.01 18.79c-98.47,56 -224.38,21.3 -280.33,-77.05l-1221.77 -2148.21c-55.93,-98.42 -21.33,-224.36 77.07,-280.33l32.97 -18.79c98.45,-55.94 224.39,-21.35 280.39,77.07zm-900.15 1631.36l1106.41 1073.85c-136.81,70.39 -253.74,159.42 -354.55,268.32l-6.47 7.11 -1058.22 -1026.96c-81.2,-78.87 -83.17,-209.45 -4.33,-290.7l26.41 -27.23c78.89,-81.28 209.47,-83.26 290.75,-4.39zm-1702.24 820.49l2115.15 1211.92c-27.85,131.97 -44.53,274.81 -52.74,429.6 -46.79,9.11 -96.93,2.2 -141.38,-23.26l-2144.31 -1228.57c-98.22,-56.31 -132.43,-182.32 -76.17,-280.57l18.86 -32.9c56.31,-98.29 182.32,-132.5 280.59,-76.22zm57.87 1843.03l1586.9 448.31c89.88,25.35 149.68,104.48 149.68,197.84l0 39.45c0,66.52 -28.49,123.81 -81.54,163.94 -53.05,40.14 -115.92,51.97 -179.93,33.88l-1597.19 -451.2c-108.95,-30.8 -172.73,-144.75 -141.95,-253.72l10.31 -36.55c30.77,-108.97 144.75,-172.69 253.72,-141.95zm1357.18 5922.62l641.12 -572.29 0 602.01 -342.03 305.3c-84.43,75.43 -214.83,68.04 -290.23,-16.48l-25.31 -28.31c-75.4,-84.48 -68.01,-214.83 16.45,-290.23zm-1642.05 -875.29l2133.45 -1247.28c46.94,-27.44 100.45,-34.09 149.72,-22.74l0 455.46 -2056.48 1202.3c-97.76,57.16 -224.08,24.02 -281.2,-73.73l-19.2 -32.78c-57.16,-97.75 -24.05,-224.05 73.71,-281.23zm158.6 -1898.18l1566.22 -428.93c63.9,-17.5 126.35,-5.34 179.01,34.83 52.66,40.16 80.87,97.24 80.87,163.45l0 39.4c0,93.93 -60.67,173.46 -151.27,198.25l-1556.21 426.19c-109.17,29.87 -222.56,-34.78 -252.53,-143.98l-10.07 -36.62c-29.97,-109.18 34.75,-222.67 143.98,-252.59zm8699.65 3918.07c-13.73,-13.32 -25.46,-28.97 -34.47,-46.78l-317.1 -626.16c118.21,-48 235.57,-101.3 351.57,-159.46l0 832.4zm-1221.6 -423.67l267.61 969.78c27.79,100.74 -38.55,207.45 -147.7,237.58l-36.63 10.08c-109.15,30.13 -220.81,-27.46 -248.61,-128.19l-287.62 -1042.31c151.32,-5.85 302.56,-21.78 452.95,-46.94zm-1334.57 49.49l0 1920.87c0,104.48 -92.34,189.71 -205.57,189.71l-37.98 0c-113.23,0 -205.57,-85.23 -205.57,-189.71l0 -1920.87 449.12 0zm-7094.01 -5123.41l2471.32 0c113.24,0 205.58,92.34 205.58,205.58l0 37.98c0,113.23 -92.34,205.57 -205.58,205.57l-2471.32 0c-113.23,0 -205.57,-92.34 -205.57,-205.57l0 -37.98c0,-113.24 92.34,-205.58 205.57,-205.58zm12930.14 -3017.69l-1929.5 1120c-53.95,-56.18 -110.38,-111.8 -169.21,-166.77 -54.22,-50.69 -112.17,-101.89 -173.67,-153.55l2046.89 -1188.13c97.96,-56.85 224.18,-23.36 281,74.58l19.07 32.85c56.84,97.93 23.3,224.13 -74.58,281.02zm-1569.1 -922.86l-1163.36 1160.46c-67.55,67.4 -169.03,79.85 -250.9,30.78 -10.78,-6.47 -21.66,-12.94 -32.49,-19.33 -56.61,-33.39 -91.26,-86.1 -99.47,-151.32 -8.21,-65.21 12.24,-124.83 58.79,-171.26l1170.25 -1167.31c80.17,-80 210.78,-79.79 290.72,0.36l26.82 26.89c79.95,80.15 79.74,210.81 -0.36,290.73zm-835.96 -1706.48l-1239.13 2138.26c-56.79,97.96 -182.98,131.55 -280.97,74.76l-32.85 -19.02c-97.94,-56.8 -131.56,-182.99 -74.79,-280.95l1239.13 -2138.25c56.79,-97.96 182.96,-131.56 280.95,-74.76l32.85 19.02c97.96,56.79 131.55,182.98 74.81,280.94zm-1870.68 -23.79l-393.51 1666.8c-26,110.18 -137.15,178.86 -247.32,152.83l-36.96 -8.72c-110.18,-26.03 -178.86,-137.1 -152.83,-247.31l393.51 -1666.79c26.02,-110.21 137.1,-178.83 247.3,-152.83l36.96 8.72c110.2,26 178.83,137.15 152.85,247.3z"/>
   </g>
   <g>
    <path class="fil2" d="M15030.84 11719.05c302.35,84.69 793.52,226.16 1070,-0.15 302.04,-247.25 81.07,-634.53 -193.87,-796.32 -213.71,-125.78 -471.71,-90.82 -694.55,47.2 84.2,-120.6 130.24,-390.1 137.5,-532.07 16.76,-326.56 -363.4,-600.24 -554.32,-550.35 -256.8,67.14 -502.05,354.43 -490.52,773.47 1.72,25.13 3.44,50.33 5.16,75.43 360.63,429.73 531.09,551.09 720.6,982.79zm-80.38 42.12c-22.87,249.92 9.32,511.26 -68.63,749.78 -45.35,138.79 -150.93,275.12 -285.13,332.64 -128.17,54.92 -296.81,38.8 -417.12,-31.67 -128.5,-75.28 -231.49,-217.92 -258.72,-364.33 -35.93,-193.13 21.45,-544.52 126.7,-712.83 -142.69,35.7 -392.66,112.43 -528.02,68.65 -311.15,-100.71 -234.52,-511.05 -199.23,-610.55 67.14,-189.28 728.92,-383.76 869.82,-318.76 272.99,490.12 316.23,520.66 760.33,887.07z"/>
    <g>
     <path class="fil3" d="M13699.04 11236.72c84.72,0 153.4,68.67 153.4,153.39 0,84.72 -68.68,153.4 -153.4,153.4 -84.72,0 -153.4,-68.68 -153.4,-153.4 0,-84.72 68.68,-153.39 153.4,-153.39z"/>
     <path class="fil3" d="M14354.76 12196c84.72,0 153.4,68.68 153.4,153.39 0,84.72 -68.68,153.4 -153.4,153.4 -84.71,0 -153.39,-68.68 -153.39,-153.4 0,-84.71 68.68,-153.39 153.39,-153.39z"/>
     <path class="fil3" d="M15726.75 11216.18c84.72,0 153.4,68.68 153.4,153.4 0,84.72 -68.68,153.4 -153.4,153.4 -84.71,0 -153.39,-68.68 -153.39,-153.4 0,-84.72 68.68,-153.4 153.39,-153.4z"/>
     <path class="fil3" d="M14835.23 10168.62c84.71,0 153.39,68.67 153.39,153.39 0,84.72 -68.68,153.4 -153.39,153.4 -84.72,0 -153.4,-68.68 -153.4,-153.4 0,-84.72 68.68,-153.39 153.4,-153.39z"/>
    </g>
    <path class="fil4" d="M13699.04 11211.05c49.3,0 94.06,20.05 126.5,52.46 32.49,32.52 52.56,77.3 52.56,126.6 0,49.3 -20.04,94.06 -52.46,126.5 -32.54,32.52 -77.3,52.56 -126.6,52.56 -49.3,0 -94.09,-20.07 -126.5,-52.46 -32.52,-32.54 -52.56,-77.3 -52.56,-126.6 0,-49.3 20.07,-94.08 52.46,-126.5 32.51,-32.49 77.3,-52.56 126.6,-52.56zm655.72 959.28c49.31,0 94.06,20.05 126.5,52.46 32.49,32.52 52.56,77.3 52.56,126.6 0,49.31 -20.04,94.06 -52.45,126.5 -32.55,32.52 -77.3,52.56 -126.61,52.56 -49.3,0 -94.08,-20.07 -126.5,-52.45 -32.51,-32.55 -52.56,-77.3 -52.56,-126.61 0,-49.3 20.07,-94.08 52.46,-126.5 32.52,-32.49 77.3,-52.56 126.6,-52.56zm1371.99 -979.81c49.31,0 94.06,20.04 126.5,52.46 32.5,32.52 52.56,77.3 52.56,126.6 0,49.3 -20.04,94.06 -52.45,126.5 -32.55,32.52 -77.3,52.56 -126.61,52.56 -49.3,0 -94.08,-20.07 -126.5,-52.46 -32.51,-32.54 -52.56,-77.3 -52.56,-126.6 0,-49.3 20.07,-94.08 52.46,-126.5 32.52,-32.49 77.3,-52.56 126.6,-52.56zm-891.52 -1047.57c49.3,0 94.06,20.05 126.5,52.46 32.49,32.52 52.56,77.3 52.56,126.6 0,49.3 -20.05,94.06 -52.46,126.5 -32.54,32.52 -77.3,52.56 -126.6,52.56 -49.3,0 -94.09,-20.07 -126.5,-52.45 -32.52,-32.55 -52.56,-77.31 -52.56,-126.61 0,-49.3 20.07,-94.08 52.45,-126.5 32.52,-32.49 77.31,-52.56 126.61,-52.56zm-1170.17 549.04c-245.35,-273.66 6.08,-346.34 256.75,-266.14 -278.26,-550.65 605.65,-524.45 293.26,-149.6l-39.52 -32.49c213.63,-258.93 -381.42,-323.55 -215.71,149.68 21.61,61.77 219.59,259.13 280.72,310.66 10.62,8.94 42.04,8.06 41.34,-5.8 -19.45,-379.85 167.46,-746.91 507.28,-835.7 212.94,-55.64 603.6,238.29 586.31,576.42 -6.42,125.19 -40.5,330.27 -99.14,465.83 683.77,-340.69 1279.21,475 840.73,833.89 -348.67,285.38 -1038.43,3.1 -1083.39,7.67l-58.98 30.9c-27.25,327.19 52.05,909.83 -367.97,1089.84 -299.02,128.14 -650.93,-91.75 -711.03,-414.94 -34.63,-186.12 14.24,-497.84 101.09,-677.93 -156.14,39.94 -362.74,95.78 -495.81,49.89 -288.47,-99.47 -267.14,-491.21 -199.93,-651.87 76.35,-182.5 644.13,-355.73 840.2,-343.57 32.44,2 44.38,-58 23.51,-85.85 -100.71,-134.22 -209.75,-264.85 -314.11,-283.43 -168.33,-29.98 -314.33,24.43 -147.51,198.25l-38.09 34.29zm1265.54 1008.76c13.03,10.17 50.3,-7.72 44.09,-23.09 -170.34,-420.05 -376.27,-585 -675.31,-914.48 -33.8,-37.21 -103.76,69.22 -81.92,107.43 249.84,436.84 280.38,492.25 713.14,830.14zm118.74 -3.13c315.96,88.54 916.25,255.08 1127.05,-103.09 191.77,-325.84 -321.62,-992.62 -950.55,-602.99l-105.33 65.27c141.18,-202.24 189.87,-346.8 203.85,-620.41 15.68,-306.41 -345.77,-570.37 -522.34,-524.27 -298.58,77.91 -487.04,419.17 -471.41,747.01l4.62 67.01c30.65,75.89 484.29,453.57 714.11,971.47zm-135.07 315.55c1.41,-80.49 2.88,-161 9.55,-240.81l-14.48 -11.96c-421.89,-347.99 -470.88,-388.46 -737.05,-865.79 -65.7,-54.49 -764,113.28 -830.32,314.06 -53.23,161.12 -69.09,485.9 185.4,570.39 129.91,43.11 408.32,-42.81 575.6,-84.54 -185.22,295.98 -296.99,868.97 89.54,1095.35 262.17,153.55 565.65,17.15 664.97,-286.85 50.81,-155.52 53.82,-322.73 56.79,-489.85zm11.32 -1781.52c-23.05,-23.07 -55.05,-37.37 -90.36,-37.37 -35.34,0 -67.32,14.3 -90.32,37.32 -23.12,23.1 -37.42,55.07 -37.42,90.41 0,35.32 14.3,67.32 37.32,90.32 23.1,23.12 55.08,37.41 90.42,37.41 35.31,0 67.31,-14.29 90.31,-37.31 23.12,-23.1 37.42,-55.1 37.42,-90.42 0,-35.34 -14.3,-67.31 -37.37,-90.36zm891.53 1047.57c-23.05,-23.08 -55.05,-37.37 -90.37,-37.37 -35.34,0 -67.31,14.29 -90.31,37.32 -23.12,23.09 -37.42,55.07 -37.42,90.41 0,35.31 14.3,67.32 37.32,90.31 23.1,23.13 55.07,37.42 90.41,37.42 35.32,0 67.32,-14.29 90.32,-37.31 23.12,-23.1 37.42,-55.11 37.42,-90.42 0,-35.34 -14.3,-67.32 -37.37,-90.36zm-1371.99 979.81c-23.05,-23.07 -55.05,-37.37 -90.37,-37.37 -35.34,0 -67.31,14.3 -90.31,37.32 -23.12,23.1 -37.42,55.07 -37.42,90.41 0,35.32 14.3,67.32 37.32,90.32 23.1,23.12 55.07,37.42 90.41,37.42 35.32,0 67.32,-14.3 90.32,-37.32 23.12,-23.1 37.42,-55.1 37.42,-90.42 0,-35.34 -14.3,-67.31 -37.37,-90.36zm-655.73 -959.28c-23.04,-23.07 -55.05,-37.37 -90.36,-37.37 -35.34,0 -67.32,14.3 -90.31,37.32 -23.13,23.09 -37.42,55.07 -37.42,90.41 0,35.32 14.29,67.32 37.31,90.31 23.1,23.13 55.08,37.42 90.42,37.42 35.31,0 67.32,-14.29 90.31,-37.31 23.13,-23.1 37.42,-55.1 37.42,-90.42 0,-35.34 -14.29,-67.32 -37.37,-90.36z"/>
   </g>
   <g>
    <path class="fil5" d="M18548.42 1697.12l1166.47 2547.68c57.23,125.03 217.17,159.96 321.32,70.16l1634.3 -1411.56 -3020.82 -1309.6c-65.26,-28.28 -130.83,38.7 -101.27,103.32zm2321.83 2033.95l-767.06 661.3c-156.14,134.63 -395.51,82.43 -481.36,-105.07l-1166.47 -2547.68c-49.2,-107.51 10.01,-263.75 234.83,-239.65l3827.43 410.47c157.27,16.38 218.56,211.99 99.19,314.93l-778.48 671.15 0 1400.12c0,43.91 -84.59,54.82 -121.9,28.59l-846.18 -594.16zm80.05 -68.98l785.07 551.24 0 -1228.06 -785.07 676.82zm1556.9 -1649.81l-3474.18 -364.43 2726.47 1181.48c97.17,-83.77 800.24,-666.78 814.67,-718.78 12.19,-43.91 -15.92,-93.01 -66.96,-98.27z"/>
    <path class="fil5" d="M22374.1 4712.22l-244.14 -121.01c-12.78,-6.33 -18.04,-21.91 -11.73,-34.69l22.38 -45.35c3.16,-6.42 8.16,-10.78 14.94,-13.07 6.77,-2.31 13.42,-1.84 19.81,1.31l244.14 121.01c12.78,6.34 18.04,21.92 11.73,34.7l-22.38 45.35c-3.15,6.41 -8.16,10.78 -14.93,13.06 -6.78,2.31 -13.43,1.87 -19.82,-1.31z"/>
    <path class="fil5" d="M22845.04 4932.81l-244.14 -121.01c-12.78,-6.34 -18.04,-21.92 -11.73,-34.7l22.38 -45.35c3.16,-6.41 8.16,-10.78 14.94,-13.06 6.77,-2.31 13.42,-1.85 19.81,1.31l244.14 121.01c12.78,6.33 18.05,21.91 11.73,34.69l-22.38 45.35c-3.15,6.42 -8.16,10.78 -14.93,13.07 -6.78,2.31 -13.43,1.87 -19.82,-1.31z"/>
    <path class="fil5" d="M23327.71 5131.19l-244.14 -121.01c-12.78,-6.33 -18.04,-21.91 -11.73,-34.69l22.38 -45.35c3.16,-6.42 8.16,-10.78 14.94,-13.07 6.77,-2.31 13.42,-1.84 19.81,1.31l244.14 121.01c12.78,6.34 18.05,21.92 11.73,34.7l-22.38 45.35c-3.15,6.41 -8.16,10.78 -14.93,13.06 -6.78,2.31 -13.43,1.87 -19.82,-1.31z"/>
    <path class="fil5" d="M23809.69 5336.56l-244.15 -121.01c-12.78,-6.34 -18.04,-21.92 -11.72,-34.7l22.38 -45.35c3.15,-6.41 8.16,-10.78 14.93,-13.06 6.78,-2.31 13.42,-1.85 19.81,1.31l244.15 121.01c12.78,6.34 18.04,21.91 11.73,34.7l-22.38 45.34c-3.16,6.42 -8.16,10.78 -14.94,13.07 -6.77,2.31 -13.42,1.87 -19.81,-1.31z"/>
    <path class="fil5" d="M24250.22 5529.91l-244.15 -121c-12.78,-6.34 -18.04,-21.92 -11.73,-34.7l22.38 -45.35c3.16,-6.42 8.16,-10.78 14.94,-13.06 6.78,-2.31 13.42,-1.85 19.81,1.3l244.15 121.01c12.78,6.34 18.04,21.92 11.73,34.7l-22.38 45.35c-3.16,6.42 -8.16,10.78 -14.94,13.06 -6.77,2.31 -13.42,1.88 -19.81,-1.31z"/>
    <path class="fil5" d="M24731.22 5755.79l-244.15 -121.01c-12.78,-6.34 -18.04,-21.92 -11.72,-34.7l22.37 -45.35c3.16,-6.41 8.17,-10.78 14.94,-13.06 6.78,-2.31 13.42,-1.85 19.81,1.31l244.15 121c12.78,6.34 18.04,21.92 11.73,34.7l-22.38 45.35c-3.16,6.42 -8.16,10.78 -14.94,13.06 -6.77,2.31 -13.42,1.88 -19.81,-1.3z"/>
    <path class="fil5" d="M25197.47 6006.06l-236.97 -134.52c-12.4,-7.05 -16.78,-22.9 -9.76,-35.3l24.89 -44.02c3.51,-6.23 8.75,-10.31 15.64,-12.21 6.9,-1.92 13.51,-1.09 19.71,2.42l236.97 134.52c12.4,7.05 16.78,22.9 9.76,35.3l-24.89 44.02c-3.51,6.23 -8.75,10.31 -15.64,12.21 -6.9,1.92 -13.51,1.12 -19.71,-2.42z"/>
    <path class="fil5" d="M25599.64 6310.24l-213.03 -169.9c-11.15,-8.9 -13,-25.24 -4.13,-36.4l31.47 -39.59c4.44,-5.6 10.25,-8.81 17.36,-9.61 7.11,-0.82 13.51,1.04 19.08,5.47l213.04 169.91c11.15,8.9 13,25.23 4.12,36.39l-31.46 39.59c-4.44,5.6 -10.26,8.81 -17.36,9.61 -7.11,0.82 -13.52,-1.01 -19.09,-5.47z"/>
    <path class="fil5" d="M26015.09 6641.99l-209.62 -174.08c-10.98,-9.12 -12.5,-25.49 -3.41,-36.47l32.25 -38.96c4.55,-5.52 10.42,-8.61 17.54,-9.27 7.13,-0.68 13.49,1.3 18.98,5.85l209.62 174.09c10.98,9.12 12.5,25.49 3.41,36.47l-32.24 38.96c-4.56,5.51 -10.43,8.6 -17.55,9.26 -7.13,0.68 -13.49,-1.27 -18.98,-5.85z"/>
    <path class="fil5" d="M26345.5 7006.9l-172.83 -210.66c-9.05,-11.03 -7.44,-27.4 3.57,-36.45l39.04 -32.15c5.51,-4.55 11.87,-6.47 18.98,-5.77 7.13,0.68 13,3.84 17.53,9.34l172.83 210.66c9.05,11.03 7.44,27.4 -3.57,36.45l-39.04 32.15c-5.51,4.55 -11.87,6.47 -18.98,5.76 -7.13,-0.67 -13.01,-3.8 -17.53,-9.33z"/>
    <path class="fil5" d="M26657.74 7414.17l-161.44 -219.52c-8.45,-11.49 -5.98,-27.75 5.49,-36.21l40.69 -30.03c5.75,-4.25 12.19,-5.83 19.26,-4.76 7.08,1.06 12.78,4.52 17.01,10.26l161.44 219.51c8.45,11.5 5.98,27.75 -5.5,36.21l-40.68 30.03c-5.75,4.26 -12.2,5.84 -19.27,4.76 -7.08,-1.05 -12.79,-4.49 -17,-10.25z"/>
    <path class="fil5" d="M26900.02 7849.07l-122.29 -243.5c-6.4,-12.75 -1.24,-28.36 11.49,-34.78l45.15 -22.77c6.38,-3.23 13.01,-3.7 19.79,-1.45 6.81,2.22 11.84,6.59 15.05,12.96l122.29 243.5c6.4,12.75 1.23,28.36 -11.5,34.78l-45.15 22.77c-6.38,3.23 -13,3.7 -19.79,1.45 -6.8,-2.22 -11.85,-6.57 -15.04,-12.96z"/>
    <path class="fil5" d="M27068.52 8327.55l-72.42 -262.68c-3.79,-13.76 4.32,-28.06 18.06,-31.87l48.72 -13.52c6.89,-1.92 13.48,-1.1 19.7,2.43 6.23,3.52 10.32,8.78 12.22,15.65l72.43 262.68c3.79,13.76 -4.32,28.06 -18.06,31.87l-48.73 13.52c-6.89,1.93 -13.47,1.1 -19.69,-2.43 -6.24,-3.51 -10.34,-8.76 -12.23,-15.65z"/>
    <path class="fil5" d="M27174.16 8821.99l-38.99 -269.68c-2.04,-14.12 7.8,-27.3 21.91,-29.36l50.03 -7.32c7.08,-1.04 13.51,0.6 19.24,4.88 5.74,4.27 9.14,10 10.17,17.05l38.99 269.69c2.04,14.12 -7.8,27.29 -21.91,29.35l-50.03 7.32c-7.08,1.05 -13.51,-0.6 -19.24,-4.88 -5.75,-4.26 -9.16,-9.98 -10.17,-17.05z"/>
    <path class="fil5" d="M27237.56 9352.48l-17.53 -271.92c-0.91,-14.24 9.94,-26.59 24.16,-27.53l50.46 -3.34c7.14,-0.48 13.42,1.67 18.79,6.39 5.39,4.71 8.32,10.69 8.79,17.8l17.53 271.93c0.91,14.24 -9.94,26.59 -24.16,27.53l-50.46 3.34c-7.14,0.48 -13.42,-1.67 -18.79,-6.39 -5.39,-4.71 -8.34,-10.68 -8.79,-17.81z"/>
    <path class="fil5" d="M27242.47 9837.81l4.58 -272.45c0.24,-14.27 12.06,-25.7 26.31,-25.48l50.57 0.76c7.15,0.1 13.23,2.75 18.2,7.89 5,5.13 7.43,11.33 7.32,18.46l-4.58 272.45c-0.24,14.26 -12.06,25.7 -26.31,25.48l-50.57 -0.76c-7.15,-0.1 -13.23,-2.75 -18.2,-7.89 -5,-5.13 -7.45,-11.32 -7.32,-18.46z"/>
    <path class="fil5" d="M27183.6 10353.7l46.43 -268.5c2.44,-14.06 15.87,-23.54 29.92,-21.13l49.85 8.53c7.05,1.2 12.66,4.75 16.78,10.6 4.14,5.84 5.59,12.34 4.39,19.36l-46.44 268.51c-2.43,14.05 -15.87,23.53 -29.92,21.12l-49.84 -8.53c-7.05,-1.2 -12.66,-4.75 -16.78,-10.59 -4.14,-5.84 -5.62,-12.34 -4.39,-19.37z"/>
   </g>
  </g>
 </g>
</svg>
