<svg xmlns="http://www.w3.org/2000/svg" xmlns:xlink="http://www.w3.org/1999/xlink" xmlns:xodm="http://www.corel.com/coreldraw/odm/2003" xml:space="preserve" version="1.1" style="shape-rendering:geometricPrecision; text-rendering:geometricPrecision; image-rendering:optimizeQuality; fill-rule:evenodd; clip-rule:evenodd" viewBox="3127.41 1804.67 19999.99 15007.1">
 <defs>
  <style type="text/css">
   <![CDATA[
    .fil0 {fill:white;fill-rule:nonzero}
   ]]>
  </style>
 </defs>
 <g id="Camada_x0020_1">
  <metadata id="CorelCorpID_0Corel-Layer"/>
  <g id="_2248167551936">
   <g id="_1803090286880">
    <g>
     <path class="fil0" d="M9576.95 7431.88l-986.33 0 0 1155.76 997.44 0c65.3,0 128.53,-11.41 189.66,-34.19 72.97,-27.2 147.19,-69.43 222.57,-126.64 50.74,-38.52 88.93,-86.89 114.49,-145.06 30.46,-69.31 45.71,-158.11 45.71,-266.34 0,-108.74 -15.25,-198.05 -45.72,-267.91 -26.14,-59.93 -65.39,-110.23 -117.7,-150.84 -76.33,-59.26 -150.35,-102.34 -222.05,-129.22 -63.23,-23.7 -129.27,-35.56 -198.07,-35.56z"/>
     <path class="fil0" d="M11255.43 5041.09c15.98,15.98 34.41,28.31 55.28,36.95 20.9,8.65 42.63,12.99 65.25,12.99 22.58,0 44.34,-4.34 65.22,-12.99 20.87,-8.64 39.32,-20.97 55.29,-36.95l883.5 -883.52c17.43,-15.65 31.07,-34.08 40.89,-55.35 9.81,-21.27 15.04,-43.59 15.63,-67.01 0.64,-23.42 -3.44,-45.98 -12.12,-67.74 -8.71,-21.73 -21.35,-40.88 -37.94,-57.41 -16.59,-16.55 -35.79,-29.11 -57.55,-37.73 -21.79,-8.63 -44.38,-12.55 -67.79,-11.87 -23.42,0.69 -45.73,5.99 -66.95,15.91 -21.24,9.91 -39.63,23.6 -55.23,41.09l-883.48 883.49c-15.84,15.96 -28.05,34.33 -36.6,55.15 -8.61,20.79 -12.89,42.44 -12.89,64.91 0,22.5 4.28,44.15 12.89,64.94 8.55,20.78 20.76,39.18 36.6,55.14z"/>
     <path class="fil0" d="M5785.55 10296.95l-513.78 513.79c-14.48,16.24 -25.44,34.63 -32.91,55.06 -7.43,20.46 -10.82,41.56 -10.17,63.34 0.64,21.73 5.3,42.62 13.97,62.6 8.64,19.98 20.66,37.66 36.08,53.01 15.43,15.37 33.14,27.33 53.16,35.91 20,8.58 40.9,13.16 62.64,13.7 21.8,0.57 42.89,-2.9 63.32,-10.42 20.43,-7.5 38.75,-18.54 54.94,-33.09l272.75 -272.74 0 -481.16z"/>
     <path class="fil0" d="M8806.91 4114.43c94.06,0 170.38,-110.89 170.38,-247.63l0 -1814.72c0,-136.31 -76.32,-247.41 -170.38,-247.41 -94.07,0 -170.38,110.88 -170.38,247.41l0 1814.72c0,136.74 76.31,247.63 170.38,247.63z"/>
     <path class="fil0" d="M8636.53 11392.69l0 1523.52c0,97.83 39.27,182.62 96.23,222.75l148.34 0c56.92,-40.09 96.19,-124.81 96.19,-222.75l0 -1523.52 -340.76 0z"/>
     <path class="fil0" d="M10491.89 4565.81c81.33,47.05 202.89,-10.67 271.24,-129.02l907.35 -1571.64c68.15,-118.36 57.71,-252.62 -23.84,-299.64 -81.56,-47.04 -202.86,10.9 -271.27,129.27l-907.34 1571.61c-68.36,118.36 -57.71,252.4 23.86,299.42z"/>
     <path class="fil0" d="M12120.55 5766.53l1475.73 -852.01c118.35,-68.14 176.28,-189.66 129.24,-271.23 -47.02,-81.56 -181.73,-92.25 -299.63,-22.71l-1559.07 900.11c88.96,75.57 173.54,157.53 253.73,245.84z"/>
     <path class="fil0" d="M5785.55 9103.54c-58.39,-10.2 -130.12,3.22 -196.43,41.72l-1571.61 907.38c-118.35,68.14 -176.31,189.68 -129.29,271.24 47.04,81.56 181.77,92.24 299.67,23.83l1571.64 -907.33c9.03,-5.22 17.71,-10.75 26.02,-16.54l0 -320.3z"/>
     <path class="fil0" d="M5437.14 7484.17c0,-94.06 -110.87,-170.38 -247.6,-170.38l-1814.73 0c-136.52,0 -247.4,76.32 -247.4,170.38 0,94.06 110.88,170.38 247.4,170.38l1814.73 0c136.73,0 247.6,-76.32 247.6,-170.38z"/>
     <path class="fil0" d="M4017.51 4915.69l1571.61 907.34c67.63,38.94 140.39,52.2 199.09,41.44 0.83,-27.03 1.87,-54.89 3.11,-83.61 3.17,-73.24 8.41,-138.17 15.73,-194.76l0 -1.61c0.88,-6.7 1.83,-13.42 2.88,-20.17 -15.25,-12.82 -32.09,-24.69 -50.4,-35.27l-1571.64 -907.35c-118.37,-68.15 -252.63,-57.71 -299.67,22.73 -47.02,80.43 11.61,202.86 129.29,271.26z"/>
     <path class="fil0" d="M10739.01 11171.25l332.16 575.36 -66.37 -690.59c-88.05,42.39 -176.65,80.8 -265.79,115.23z"/>
     <path class="fil0" d="M6850.65 4436.77c68.16,118.36 189.93,176.08 271.26,129.03 81.33,-47.02 92.23,-181.73 22.72,-299.41l-906.23 -1571.62c-68.16,-118.37 -189.68,-176.3 -271.24,-129.26 -81.56,47.02 -92.25,181.73 -22.72,299.64l906.21 1571.62z"/>
     <path class="fil0" d="M5291.53 8264.52l-1207 323.5c-21.5,6.14 -41.04,16.1 -58.6,29.91 -17.56,13.82 -31.86,30.44 -42.88,49.88 -11.03,19.46 -17.98,40.26 -20.82,62.42 -2.85,22.16 -1.39,44.02 4.37,65.61 5.79,21.61 15.45,41.29 28.95,59.09 13.51,17.8 29.87,32.38 49.14,43.72 19.26,11.34 39.94,18.64 62.07,21.85 22.11,3.21 43.99,2.13 65.69,-3.29l1207 -323.5c21.83,-5.85 41.68,-15.64 59.61,-29.38 17.93,-13.76 32.55,-30.41 43.87,-49.98 11.31,-19.58 18.43,-40.56 21.39,-62.96 2.94,-22.41 1.48,-44.52 -4.37,-66.35 -5.82,-21.84 -15.62,-41.71 -29.37,-59.61 -13.77,-17.93 -30.43,-32.54 -49.99,-43.86 -19.58,-11.3 -40.54,-18.42 -62.93,-21.38 -22.43,-2.97 -44.55,-1.51 -66.34,4.33l0.21 0z"/>
     <path class="fil0" d="M5374.67 6393.71l-1206.78 -324.2c-21.82,-5.82 -43.92,-7.27 -66.34,-4.31 -22.4,2.94 -43.38,10.06 -62.97,21.37 -19.54,11.31 -36.18,25.91 -49.96,43.84 -13.75,17.92 -23.55,37.8 -29.38,59.62 -5.85,21.84 -7.3,43.95 -4.35,66.34 2.96,22.42 10.07,43.4 21.38,62.96 11.32,19.58 25.93,36.24 43.86,49.99 17.93,13.73 37.79,23.55 59.61,29.39l1205.89 323.26c22.26,7.51 45.08,10.32 68.5,8.39 23.39,-1.91 45.48,-8.43 66.19,-19.47 20.75,-11.06 38.44,-25.79 53.08,-44.16 14.63,-18.36 25.03,-38.9 31.19,-61.58 6.14,-22.66 7.54,-45.64 4.2,-68.88 -3.37,-23.26 -11.18,-44.88 -23.47,-64.89 -12.31,-20.03 -28.04,-36.79 -47.28,-50.29 -19.25,-13.51 -40.35,-22.62 -63.37,-27.38z"/>
     <path class="fil0" d="M6350.39 4781.17l-851.22 -851.23c-15.88,-16.43 -34.32,-29.15 -55.35,-38.15 -20.98,-9 -42.91,-13.62 -65.75,-13.8 -22.86,-0.18 -44.87,4.07 -65.98,12.7 -21.17,8.67 -39.81,21.11 -55.96,37.26 -16.14,16.18 -28.55,34.83 -37.2,55.98 -8.62,21.16 -12.83,43.14 -12.63,66 0.19,22.84 4.83,44.76 13.84,65.76 9.03,21.01 21.77,39.42 38.21,55.28l813.71 813.71c74.3,-81.82 167.06,-149.66 278.33,-203.51z"/>
     <path class="fil0" d="M9705.83 11390.01l223.77 835.37c5.86,21.81 15.67,41.7 29.42,59.61 13.75,17.94 30.41,32.54 49.96,43.87 19.57,11.31 40.57,18.41 62.97,21.35 22.37,2.96 44.49,1.53 66.34,-4.33 21.81,-5.82 41.69,-15.62 59.62,-29.37 17.94,-13.78 32.53,-30.43 43.84,-50 11.3,-19.58 18.43,-40.54 21.38,-62.93 2.98,-22.43 1.53,-44.52 -4.32,-66.34l-209.1 -780.69c-114.23,17.55 -228.86,28.7 -343.88,33.46z"/>
     <path class="fil0" d="M7716.44 4038.08c5.84,21.83 15.65,41.73 29.43,59.65 13.76,17.92 30.42,32.53 50.02,43.84 19.57,11.28 40.56,18.41 62.98,21.36 22.42,2.94 44.53,1.49 66.37,-4.4 21.83,-5.83 41.7,-15.67 59.64,-29.43 17.93,-13.77 32.52,-30.44 43.8,-50.03 11.29,-19.6 18.43,-40.58 21.34,-62.97 2.92,-22.45 1.47,-44.57 -4.4,-66.38l-323.71 -1206.78c-5.23,-22.52 -14.6,-43.15 -28.18,-61.83 -13.61,-18.7 -30.31,-34 -50.08,-45.9 -19.82,-11.9 -41.18,-19.46 -64.06,-22.68 -22.88,-3.23 -45.5,-1.87 -67.83,4.14 -22.31,5.98 -42.6,16.08 -60.79,30.32 -18.2,14.23 -32.9,31.45 -44.12,51.68 -11.2,20.2 -18.03,41.8 -20.42,64.78 -2.42,22.99 -0.26,45.51 6.49,67.62l323.52 1207.01z"/>
     <path class="fil0" d="M9708.58 4153.49c21.81,5.86 43.9,7.32 66.3,4.38 22.39,-2.94 43.37,-10.06 62.95,-21.34 19.54,-11.3 36.2,-25.92 49.94,-43.84 13.73,-17.91 23.54,-37.79 29.35,-59.6l323.51 -1206.1c5.85,-21.83 7.28,-43.96 4.34,-66.35 -2.94,-22.4 -10.06,-43.38 -21.39,-62.95 -11.29,-19.56 -25.91,-36.22 -43.85,-49.96 -17.92,-13.77 -37.8,-23.55 -59.61,-29.41 -21.83,-5.82 -43.95,-7.29 -66.36,-4.33 -22.39,2.94 -43.37,10.08 -62.94,21.38 -19.55,11.3 -36.23,25.92 -49.98,43.84 -13.76,17.92 -23.53,37.8 -29.39,59.65l-323.51 1206.09c-5.86,21.82 -7.32,43.91 -4.36,66.33 2.96,22.42 10.11,43.39 21.41,62.96 11.35,19.58 25.95,36.21 43.92,49.95 17.93,13.74 37.82,23.51 59.67,29.3z"/>
    </g>
    <g>
     <path class="fil0" d="M10962.54 10616.4c-450.47,242.58 -912.33,363.92 -1385.59,363.92l-1398.71 0 0 1264.3c0,171.66 -5.56,300.32 -16.85,386.17 -11.09,85.81 -46.38,184.52 -106.06,296.55 -104.45,201.4 -395.44,302.08 -872.78,302.08 -522.16,0 -828.02,-137.96 -917.63,-414.11 -44.58,-126.66 -67,-320.72 -67,-581.79l0 -6209.92c0,-171.47 5.57,-300.12 16.67,-385.95 11.28,-85.85 46.77,-184.56 106.44,-296.56 104.47,-201.39 395.28,-302.09 872.61,-302.09l2394.42 0c656.53,0 1294.22,238.66 1913.28,716.21 148.76,112.39 284.27,244.21 406.55,395.44 -205.95,23.29 -382.95,61.73 -530.94,115.31 -199.27,72.15 -354.45,173.79 -465.43,304.93 -112.4,132.64 -186.38,302.05 -221.98,508.23 -28.66,166.09 -32.06,362.91 -10.19,590.43l283.19 2946.85zm-1385.59 -3596.89l-1398.71 0 0 1980.5 1409.82 0c223.78,0 444.03,-82.07 660.3,-246.2 216.27,-164.14 324.5,-410.34 324.5,-738.4 0,-328.27 -108.23,-576.26 -324.5,-744.15 -216.27,-167.91 -440.08,-251.75 -671.41,-251.75z"/>
     <path class="fil0" d="M22467.3 8843.22c440.07,522.13 660.1,1107.69 660.1,1756.68 -14.87,745.95 -270.37,1370.77 -766.55,1874.28 -495.96,503.49 -1098.19,755.24 -1806.85,755.24l-2074.25 0c-23.85,-293.17 -80.36,-549.56 -169.9,-745.29 -153.77,-336.17 -376.97,-478.19 -691.59,-558 -280.46,-71.11 -690.79,-8.71 -991.59,20.2l0 -534.41c312.34,-284.8 370.67,-747.27 326.4,-1207.9 -27.27,-283.69 -82.53,-516.49 -165.75,-698.35 -45.29,-98.98 -98.84,-184.59 -160.65,-256.88l0 -736.78c271.07,-26.76 473.14,-60.29 692.36,-157.55 518.56,-230.06 615.78,-798.7 561.45,-1364.28 -48.26,-502.3 -191.13,-992.14 -635.52,-1181.42 -223.19,-95.06 -373.09,-116.56 -609.7,-106.88 10.07,-138.46 34.18,-219.23 114.5,-371.88 104.49,-201.41 395.29,-302.1 872.63,-302.1l2819.59 0c686.28,0 1260.75,238.66 1723.22,716 484.87,484.87 727.31,1066.67 727.31,1745.61 0,492.2 -141.73,943.58 -425.21,1353.71zm-1320.4 1644.89c0,-261.52 -37.68,-549.67 -268.4,-649 -149.28,-59.66 -358.01,-89.61 -626.61,-89.61 -268.6,0 -470.01,-52.12 -604.2,-156.59 -134.2,-104.47 -201.41,-318.73 -201.41,-643.26 0,-324.5 68.99,-538.97 206.96,-643.43 137.97,-104.48 367.33,-156.61 688.05,-156.61 298.34,0 477.54,-78.3 537.21,-235.09 22.38,-81.87 33.49,-216.07 33.49,-402.63 0,-186.52 -61.64,-317.16 -184.75,-391.69 -123.09,-74.72 -307.65,-112 -553.65,-112l-1566.6 0 0 4240.72 1834.99 0c470.01,0 704.92,-253.55 704.92,-760.81z"/>
     <path class="fil0" d="M13560.67 12653.85l3430.41 -329.67c170.9,-16.43 299.48,-23.23 386,-20.18 86.5,3.03 188.15,28.73 305.16,77.42 210.46,84.7 338.52,364.55 384.2,839.89 49.97,519.74 -58.12,837.41 -324.23,952.8 -122.01,56.72 -312.84,97.56 -572.71,122.54l-4410.5 423.87c-519.75,49.97 -837.78,-61.86 -954.08,-335.47 -55.81,-114.51 -96.32,-301.81 -121.29,-561.68l-595.14 -6192.47c-36.39,-378.65 9.27,-643.32 137.15,-794.22 127.87,-151.11 388.65,-245.45 782.1,-283.27l4388.2 -421.73c170.9,-16.41 299.47,-23.21 385.99,-20.16 86.52,3.01 188.18,28.71 305.16,77.4 210.47,84.73 338.55,364.56 384.23,839.91 49.94,519.73 -58.12,837.39 -324.25,952.78 -121.99,56.72 -312.84,97.58 -572.72,122.57l-3419.35 328.61 108.11 1124.91 2205.26 -211.94c170.88,-16.41 299.47,-23.21 385.97,-20.16 86.52,2.84 188.18,28.71 305.37,77.4 210.46,84.7 338.52,364.52 384.2,839.68 49.95,519.76 -61.88,837.77 -335.47,954.07 -122.03,56.54 -312.86,97.4 -572.74,122.36l-2183.14 209.83 108.11 1124.91z"/>
     <g>
      <path class="fil0" d="M6798.22 16206.54c-67.95,52.37 -138.34,78.57 -211.19,78.57l-153.45 0 0 138.73c0,18.82 -0.62,32.93 -1.84,42.34 -1.21,9.41 -5.1,20.27 -11.65,32.54 -11.47,22.12 -43.38,33.16 -95.77,33.16 -57.28,0 -90.85,-15.14 -100.67,-45.43 -4.92,-13.93 -7.37,-35.18 -7.37,-63.85l0 -681.37c0,-18.83 0.61,-32.94 1.83,-42.35 1.24,-9.41 5.13,-20.24 11.68,-32.54 11.45,-22.1 43.37,-33.14 95.77,-33.14l262.71 0c72.04,0 142,26.18 209.95,78.55 33.55,25.4 60.98,59.75 82.23,103.15 21.3,43.37 31.95,91.67 31.95,144.86 0,53.2 -10.65,101.29 -31.95,144.27 -21.25,42.94 -48.68,77.11 -82.23,102.51zm-211.19 -356.03l-153.45 0 0 217.3 154.69 0c24.55,0 48.69,-9 72.43,-27 23.75,-18.03 35.61,-45.03 35.61,-81.05 0,-36.02 -11.86,-63.22 -35.61,-81.64 -23.74,-18.41 -48.27,-27.61 -73.67,-27.61z"/>
      <path class="fil0" d="M7394.39 16108.32c-14.75,0 -28.86,-3.28 -42.39,-9.83 -13.49,-6.55 -31.28,-9.82 -53.38,-9.82 -22.12,0 -42.78,7.76 -62.01,23.33 -19.24,15.55 -28.83,34.36 -28.83,56.48l0 257.81c0,18.82 -0.62,32.95 -1.86,42.34 -1.21,9.41 -5.11,20.27 -11.66,32.54 -12.27,21.28 -44.19,31.92 -95.76,31.92 -39.28,0 -67.51,-6.94 -84.71,-20.86 -13.1,-11.47 -20.45,-29.06 -22.1,-52.8 0,-8.18 0,-20.04 0,-35.59l0 -430.94c0,-18.82 0.62,-32.95 1.83,-42.34 1.24,-9.41 4.72,-19.86 10.44,-31.31 11.48,-22.1 43.4,-33.14 95.77,-33.14 49.12,0 79.81,9.4 92.08,28.24 9,13.08 13.51,26.59 13.51,40.51 4.08,-5.72 10.01,-12.71 17.8,-20.86 7.76,-8.2 24.34,-19.24 49.72,-33.16 25.37,-13.92 47.67,-20.88 66.91,-20.88 19.24,0 35.4,1.03 48.48,3.07 13.1,2.05 27.41,5.54 42.98,10.44 15.55,4.9 28.45,13.28 38.68,25.16 10.24,11.87 15.34,30.9 15.34,57.09 0,26.18 -7.78,54.85 -23.33,85.95 -15.55,31.1 -38.06,46.65 -67.51,46.65z"/>
      <path class="fil0" d="M8209.2 16208.99c0,67.92 -17.61,128.28 -52.81,181.09 -35.17,52.79 -77.93,91.65 -128.28,116.61 -50.34,24.96 -102.51,37.44 -156.53,37.44 -54.02,0 -106.39,-13.28 -157.14,-39.89 -50.75,-26.59 -93.5,-65.88 -128.29,-117.85 -34.78,-51.98 -52.19,-110.69 -52.19,-176.17 0,-98.22 34.38,-179.24 103.12,-243.08 68.75,-63.85 147.34,-95.77 235.74,-95.77 88.39,0 166.55,31.72 234.47,95.15 67.93,63.43 101.91,144.25 101.91,242.47zm-379.37 119.08c54.03,0 94.54,-10.22 121.54,-30.69 27.02,-20.47 40.53,-50.74 40.53,-90.84 0,-40.1 -12.69,-69.99 -38.06,-89.63 -25.37,-19.65 -52.79,-29.48 -82.26,-29.48 -29.45,0 -56.88,10.24 -82.26,30.69 -25.37,20.47 -38.06,50.54 -38.06,90.25 0,39.69 13.1,69.57 39.28,89.63l39.29 30.07z"/>
      <path class="fil0" d="M8698.58 16452.07c-31.07,40.91 -80.6,61.38 -148.53,61.38 -67.94,0 -131.58,-31.31 -190.92,-93.92 -59.33,-62.61 -89.01,-135.64 -89.01,-219.13 0,-83.49 29.88,-156.73 89.63,-219.75 59.75,-63.02 125.22,-94.54 196.42,-94.54 27.82,0 53.2,5.11 76.12,15.35 22.92,10.23 38.68,19.63 47.26,28.23 8.59,8.59 15.35,16.56 20.27,23.94 2.45,-22.91 10.85,-40.31 25.17,-52.17 14.31,-11.89 37.44,-17.82 69.36,-17.82 31.93,0 55.24,2.47 69.97,7.38 14.74,4.9 25.18,13.28 31.3,25.16 6.16,11.87 9.84,22.31 11.06,31.31 1.24,9 1.85,22.9 1.85,41.75l0 508.25c0,94.12 -32.74,170.03 -98.24,227.72 -65.47,57.71 -139.12,86.56 -220.96,86.56 -62.2,0 -121.56,-15.14 -178.03,-45.41 -56.47,-30.28 -84.71,-57.71 -84.71,-82.26 0,-31.92 12.28,-60.16 36.85,-84.71 15.55,-17.2 27.62,-29.06 36.2,-35.61 8.61,-6.55 18.62,-9.82 30.07,-9.82 11.48,0 23.34,4.92 35.61,14.74 39.3,30.28 81.85,45.42 127.67,45.42 31.12,0 56.5,-12.28 76.12,-36.83 19.65,-24.55 29.47,-54.02 29.47,-88.39l0 -36.83zm-218.53 -211.16c41.77,42.55 77.56,63.84 107.44,63.84 29.87,0 54.62,-10.85 74.27,-32.54 19.65,-21.68 29.47,-45.41 29.47,-71.19 0,-25.79 -9.41,-49.95 -28.23,-72.46 -18.85,-22.49 -44.2,-33.75 -76.12,-33.75 -31.95,0 -57.71,11.04 -77.36,33.13 -19.65,22.12 -29.47,46.47 -29.47,73.08l0 39.89z"/>
      <path class="fil0" d="M9408.96 16108.32c-14.75,0 -28.86,-3.28 -42.39,-9.83 -13.49,-6.55 -31.28,-9.82 -53.38,-9.82 -22.12,0 -42.78,7.76 -62.01,23.33 -19.24,15.55 -28.84,34.36 -28.84,56.48l0 257.81c0,18.82 -0.61,32.95 -1.85,42.34 -1.22,9.41 -5.11,20.27 -11.66,32.54 -12.27,21.28 -44.19,31.92 -95.77,31.92 -39.27,0 -67.51,-6.94 -84.7,-20.86 -13.1,-11.47 -20.45,-29.06 -22.1,-52.8 0,-8.18 0,-20.04 0,-35.59l0 -430.94c0,-18.82 0.62,-32.95 1.83,-42.34 1.24,-9.41 4.72,-19.86 10.44,-31.31 11.47,-22.1 43.4,-33.14 95.77,-33.14 49.12,0 79.81,9.4 92.08,28.24 9,13.08 13.51,26.59 13.51,40.51 4.08,-5.72 10.01,-12.71 17.8,-20.86 7.76,-8.2 24.34,-19.24 49.71,-33.16 25.38,-13.92 47.68,-20.88 66.92,-20.88 19.23,0 35.4,1.03 48.48,3.07 13.1,2.05 27.41,5.54 42.98,10.44 15.55,4.9 28.44,13.28 38.68,25.16 10.24,11.87 15.34,30.9 15.34,57.09 0,26.18 -7.78,54.85 -23.33,85.95 -15.55,31.1 -38.06,46.65 -67.51,46.65z"/>
      <path class="fil0" d="M9986.84 15954.86c4.92,-45.82 37.26,-68.75 97,-68.75 31.91,0 55.63,2.46 71.18,7.36 15.57,4.9 26.43,13.51 32.56,25.78 6.12,12.28 9.83,23.13 11.04,32.54 1.22,9.39 1.83,23.52 1.83,42.35l0 429.7c0,18.82 -0.61,32.93 -1.83,42.34 -1.21,9.41 -4.69,20.27 -10.42,32.54 -11.47,21.28 -39.5,31.92 -84.11,31.92 -44.61,0 -74.49,-5.54 -89.63,-16.58 -15.14,-11.03 -23.93,-27.2 -26.38,-48.48 -30.3,43.38 -80.84,65.06 -151.63,65.06 -70.8,0 -136.48,-32.33 -197.05,-96.98 -60.57,-64.67 -90.85,-139.76 -90.85,-225.27 0,-85.53 30.5,-160.44 91.47,-224.67 60.98,-64.26 127.89,-96.39 200.72,-96.39 27.84,0 53.22,4.9 76.12,14.73 22.92,9.82 38.88,19.03 47.88,27.63 9,8.59 16.37,16.97 22.1,25.17zm-223.44 295.85c42.55,43.4 78.99,65.08 109.26,65.08 30.3,0 55.46,-11.04 75.5,-33.13 20.06,-22.12 30.09,-46.47 30.09,-73.06 0,-26.6 -9.64,-51.36 -28.85,-74.26 -19.24,-22.92 -45.02,-34.4 -77.36,-34.4 -32.31,0 -58.51,11.48 -78.57,34.4 -20.04,22.9 -30.07,47.86 -30.07,74.88l0 40.49z"/>
      <path class="fil0" d="M10509.36 15972.04c38.5,-58.12 84.71,-87.16 138.73,-87.16 83.5,0 145.68,35.59 186.61,106.81 9,-12.28 19.85,-25.17 32.54,-38.66 12.68,-13.53 32.95,-28.26 60.77,-44.22 27.81,-15.96 56.48,-23.93 85.95,-23.93 65.47,0 120.3,25.15 164.49,75.5 44.2,50.34 66.3,133.6 66.3,249.84l0 214.85c0,18.83 -0.62,32.93 -1.83,42.35 -1.22,9.41 -5.11,20.24 -11.66,32.54 -10.65,22.1 -42.16,33.13 -94.53,33.13 -51.59,0 -83.11,-11.45 -94.54,-34.37 -5.74,-12.27 -9.22,-23.13 -10.44,-32.54 -1.23,-9.41 -1.85,-23.52 -1.85,-42.34l0 -214.85c0,-71.22 -25.37,-106.81 -76.12,-106.81 -28.65,0 -48.07,9.39 -58.33,28.24 -10.21,18.82 -15.32,45.41 -15.32,79.8l0 214.85c0,19.63 -0.62,33.96 -1.85,42.96 -1.22,9 -5.11,19.63 -11.66,31.93 -11.45,22.1 -43.39,33.13 -95.77,33.13 -51.54,0 -83.05,-11.45 -94.52,-34.37 -5.73,-12.27 -9.21,-23.13 -10.42,-32.54 -1.22,-9.41 -1.84,-23.52 -1.84,-42.34l0 -214.85c0,-71.22 -25.39,-106.81 -76.12,-106.81 -49.11,0 -73.66,35.59 -73.66,106.81l0 217.3c0,18.82 -0.62,32.95 -1.86,42.34 -1.21,9.41 -5.11,20.27 -11.66,32.54 -12.27,21.28 -44.19,31.92 -95.76,31.92 -51.55,0 -83.06,-11.03 -94.54,-33.13 -5.72,-12.3 -9.2,-22.93 -10.44,-31.93 -1.21,-9 -1.83,-23.33 -1.83,-42.96l0 -432.17c0,-18.82 0.62,-32.95 1.83,-42.34 1.24,-9.41 5.13,-19.86 11.68,-31.31 12.3,-22.1 41.34,-33.14 87.18,-33.14 45.82,0 75.69,7.36 89.61,22.1 13.92,14.73 20.86,36 20.86,63.83z"/>
      <path class="fil0" d="M11762.16 15954.86c4.93,-45.82 37.26,-68.75 97.01,-68.75 31.9,0 55.63,2.46 71.18,7.36 15.57,4.9 26.42,13.51 32.56,25.78 6.11,12.28 9.82,23.13 11.04,32.54 1.21,9.39 1.83,23.52 1.83,42.35l0 429.7c0,18.82 -0.62,32.93 -1.83,42.34 -1.22,9.41 -4.7,20.27 -10.43,32.54 -11.47,21.28 -39.5,31.92 -84.11,31.92 -44.61,0 -74.49,-5.54 -89.63,-16.58 -15.14,-11.03 -23.93,-27.2 -26.38,-48.48 -30.3,43.38 -80.84,65.06 -151.62,65.06 -70.81,0 -136.49,-32.33 -197.06,-96.98 -60.57,-64.67 -90.84,-139.76 -90.84,-225.27 0,-85.53 30.5,-160.44 91.46,-224.67 60.98,-64.26 127.9,-96.39 200.72,-96.39 27.85,0 53.22,4.9 76.12,14.73 22.92,9.82 38.89,19.03 47.89,27.63 9,8.59 16.37,16.97 22.09,25.17zm-223.43 295.85c42.55,43.4 78.98,65.08 109.25,65.08 30.3,0 55.47,-11.04 75.51,-33.13 20.06,-22.12 30.09,-46.47 30.09,-73.06 0,-26.6 -9.64,-51.36 -28.86,-74.26 -19.23,-22.92 -45.02,-34.4 -77.35,-34.4 -32.32,0 -58.52,11.48 -78.57,34.4 -20.04,22.9 -30.07,47.86 -30.07,74.88l0 40.49z"/>
      <path class="fil0" d="M12912.97 16315.79l378.13 0c18.82,0 32.95,0.62 42.36,1.84 9.41,1.23 20.27,5.13 32.54,11.67 22.1,11.46 33.14,43.38 33.14,95.77 0,57.28 -15.14,90.83 -45.41,100.65 -13.93,4.92 -35.2,7.37 -63.85,7.37l-486.17 0c-57.28,0 -90.85,-15.54 -100.67,-46.64 -4.92,-13.1 -7.37,-33.97 -7.37,-62.61l0 -682.61c0,-41.75 7.76,-70.19 23.33,-85.33 15.55,-15.14 45.02,-22.7 88.4,-22.7l483.7 0c18.82,0 32.95,0.62 42.36,1.84 9.41,1.21 20.27,5.11 32.54,11.65 22.1,11.48 33.14,43.38 33.14,95.77 0,57.28 -15.14,90.85 -45.41,100.67 -13.93,4.92 -35.2,7.38 -63.85,7.38l-376.91 0 0 123.98 243.1 0c18.83,0 32.94,0.62 42.35,1.85 9.41,1.22 20.24,5.11 32.54,11.66 22.1,11.45 33.14,43.37 33.14,95.77 0,57.27 -15.55,90.84 -46.65,100.65 -13.93,4.92 -35.2,7.37 -63.85,7.37l-240.63 0 0 124z"/>
      <path class="fil0" d="M14114.37 15692.13l0 732.94c0,18.83 -0.62,32.93 -1.83,42.35 -1.22,9.41 -5.11,19.85 -11.66,31.3 -12.27,22.12 -46.85,33.16 -103.74,33.16 -56.88,0 -88.6,-20.06 -95.15,-60.16 -34.37,39.28 -82.25,58.92 -143.63,58.92 -73.67,0 -140.79,-32.12 -201.36,-96.36 -60.55,-64.26 -90.84,-139.14 -90.84,-224.68 0,-85.53 30.48,-160.62 91.46,-225.29 60.98,-64.65 127.9,-96.98 200.74,-96.98 60.55,0 107.61,20.47 141.18,61.37l0 -257.81c0,-18.82 0.62,-32.95 1.84,-42.34 1.23,-9.41 4.92,-20.06 11.05,-31.92 6.14,-11.89 16.98,-20.27 32.52,-25.17 15.57,-4.92 36.21,-7.38 62,-7.38 25.78,0 46.44,2.46 62.01,7.38 15.55,4.9 26.4,13.51 32.54,25.78 6.14,12.28 9.82,23.13 11.04,32.54 1.21,9.4 1.83,23.52 1.83,42.35zm-369.52 624.88c60.57,0 100.88,-11.04 120.92,-33.14 20.06,-22.1 30.09,-46.44 30.09,-73.05 0,-26.59 -9.62,-51.36 -28.86,-74.27 -19.23,-22.92 -45.23,-34.37 -77.95,-34.37 -32.73,0 -58.92,11.24 -78.57,33.76 -19.65,22.51 -29.47,47.26 -29.47,74.28 0,27 10.64,51.55 31.92,73.65l31.92 33.14z"/>
      <path class="fil0" d="M14499.4 16530.64c-82.67,0 -151.21,-31.3 -205.64,-93.91 -54.42,-62.63 -81.64,-138.94 -81.64,-228.96l0 -214.87c0,-19.63 0.61,-33.94 1.83,-42.96 1.24,-9 4.72,-19.65 10.44,-31.92 11.47,-22.1 43.4,-33.14 95.77,-33.14 57.3,0 90.85,15.55 100.67,46.65 4.92,13.1 7.37,33.96 7.37,62.61l0 214.85c0,33.57 9.6,59.74 28.84,78.57 19.23,18.82 45.02,28.23 77.33,28.23 32.34,0 58.53,-9.82 78.59,-29.45 20.06,-19.65 30.09,-45.43 30.09,-77.35l0 -217.3c0,-18.83 0.62,-32.96 1.84,-42.37 1.21,-9.39 5.1,-20.24 11.65,-32.52 10.65,-21.29 42.16,-31.92 94.53,-31.92 51.58,0 83.09,11.04 94.54,33.14 5.72,12.27 9.22,23.13 10.44,32.54 1.21,9.39 1.83,23.52 1.83,42.34l0 434.62c0,18 -0.62,31.72 -1.83,41.11 -1.22,9.41 -5.11,19.86 -11.66,31.33 -12.27,21.27 -43.78,31.92 -94.53,31.92 -49.92,0 -80.61,-9.82 -92.08,-29.47 -8.18,-13.92 -12.28,-30.69 -12.28,-50.34 -3.27,5.73 -10.64,13.9 -22.1,24.55 -11.45,10.65 -22.51,19.63 -33.15,27 -27.83,18.02 -58.1,27.02 -90.85,27.02z"/>
      <path class="fil0" d="M15392.68 16274.07c24.57,0 54.43,21.68 89.65,65.06 18.82,23.72 28.24,45 28.24,63.82 0,31.1 -22.51,60.16 -67.53,87.18 -46.65,32.73 -103.95,49.1 -171.89,49.1 -76.12,0 -149.36,-27.41 -219.75,-82.26 -33.58,-26.17 -60.99,-61.16 -82.26,-104.95 -21.28,-43.78 -31.93,-92.1 -31.93,-144.87 0,-52.8 10.65,-100.69 31.93,-143.65 21.27,-42.96 48.68,-77.54 82.26,-103.74 67.94,-54.02 140.35,-81.02 217.3,-81.02 31.09,0 61.39,4.29 90.84,12.89 29.47,8.59 51.16,16.97 65.08,25.17l19.65 12.26c14.71,9.82 26.18,17.6 34.35,23.35 21.3,16.35 31.95,34.97 31.95,55.86 0,20.86 -8.61,44.4 -25.81,70.58 -29.45,45.02 -57.69,67.53 -84.71,67.53 -15.55,0 -37.65,-9 -66.29,-27.02 -14.73,-13.91 -35.8,-20.87 -63.23,-20.87 -27.41,0 -52.99,9.83 -76.74,29.48 -23.72,19.62 -35.59,46.85 -35.59,81.63 0,34.79 11.47,61.81 34.38,81.03 22.9,19.23 47.26,28.85 73.05,28.85 25.78,0 49.92,-7.58 72.43,-22.72 22.49,-15.13 40.72,-22.69 54.62,-22.69z"/>
      <path class="fil0" d="M16009.82 15954.86c4.92,-45.82 37.25,-68.75 97,-68.75 31.9,0 55.63,2.46 71.18,7.36 15.57,4.9 26.42,13.51 32.56,25.78 6.12,12.28 9.82,23.13 11.04,32.54 1.21,9.39 1.83,23.52 1.83,42.35l0 429.7c0,18.82 -0.62,32.93 -1.83,42.34 -1.22,9.41 -4.7,20.27 -10.42,32.54 -11.47,21.28 -39.5,31.92 -84.11,31.92 -44.61,0 -74.5,-5.54 -89.63,-16.58 -15.14,-11.03 -23.94,-27.2 -26.39,-48.48 -30.29,43.38 -80.83,65.06 -151.62,65.06 -70.81,0 -136.48,-32.33 -197.06,-96.98 -60.57,-64.67 -90.84,-139.76 -90.84,-225.27 0,-85.53 30.5,-160.44 91.46,-224.67 60.99,-64.26 127.9,-96.39 200.72,-96.39 27.85,0 53.22,4.9 76.12,14.73 22.93,9.82 38.89,19.03 47.89,27.63 9,8.59 16.37,16.97 22.1,25.17zm-223.44 295.85c42.55,43.4 78.98,65.08 109.26,65.08 30.29,0 55.46,-11.04 75.5,-33.13 20.06,-22.12 30.09,-46.47 30.09,-73.06 0,-26.6 -9.64,-51.36 -28.86,-74.26 -19.23,-22.92 -45.02,-34.4 -77.35,-34.4 -32.31,0 -58.51,11.48 -78.57,34.4 -20.04,22.9 -30.07,47.86 -30.07,74.88l0 40.49z"/>
      <path class="fil0" d="M16723.88 16108.32c-14.75,0 -28.86,-3.28 -42.39,-9.83 -13.49,-6.55 -31.28,-9.82 -53.38,-9.82 -22.12,0 -42.78,7.76 -62.01,23.33 -19.24,15.55 -28.84,34.36 -28.84,56.48l0 257.81c0,18.82 -0.62,32.95 -1.85,42.34 -1.22,9.41 -5.11,20.27 -11.66,32.54 -12.27,21.28 -44.2,31.92 -95.77,31.92 -39.27,0 -67.51,-6.94 -84.7,-20.86 -13.1,-11.47 -20.46,-29.06 -22.1,-52.8 0,-8.18 0,-20.04 0,-35.59l0 -430.94c0,-18.82 0.61,-32.95 1.83,-42.34 1.24,-9.41 4.72,-19.86 10.44,-31.31 11.47,-22.1 43.4,-33.14 95.77,-33.14 49.12,0 79.81,9.4 92.08,28.24 9,13.08 13.51,26.59 13.51,40.51 4.08,-5.72 10.01,-12.71 17.8,-20.86 7.76,-8.2 24.34,-19.24 49.71,-33.16 25.38,-13.92 47.68,-20.88 66.92,-20.88 19.23,0 35.4,1.03 48.48,3.07 13.1,2.05 27.41,5.54 42.98,10.44 15.55,4.9 28.44,13.28 38.68,25.16 10.23,11.87 15.34,30.9 15.34,57.09 0,26.18 -7.78,54.85 -23.33,85.95 -15.55,31.1 -38.06,46.65 -67.51,46.65z"/>
      <path class="fil0" d="M17833.16 16050.61c48.29,57.3 72.43,121.55 72.43,192.75 -1.62,81.87 -29.66,150.39 -84.09,205.64 -54.43,55.26 -120.52,82.88 -198.27,82.88l-322.89 0c-57.28,0 -90.85,-15.55 -100.67,-46.67 -4.92,-13.92 -7.37,-35.18 -7.37,-63.84l0 -681.38c0,-19.63 0.61,-33.94 1.83,-42.94 1.23,-9.02 5.13,-19.65 11.68,-31.94 11.45,-22.1 43.37,-33.14 95.76,-33.14l309.37 0c75.31,0 138.33,26.2 189.06,78.57 53.22,53.2 79.83,117.04 79.83,191.52 0,54.02 -15.57,103.55 -46.67,148.55zm-144.87 180.48c0,-19.65 -2.26,-35.2 -6.75,-46.65 -4.49,-11.45 -12.07,-19.65 -22.72,-24.55 -16.37,-6.55 -39.3,-9.83 -68.75,-9.83 -29.45,0 -51.55,-5.74 -66.29,-17.17 -14.73,-11.47 -22.1,-34.99 -22.1,-70.6 0,-35.61 7.56,-59.15 22.69,-70.6 15.16,-11.48 40.33,-17.2 75.53,-17.2 32.72,0 52.37,-8.59 58.92,-25.79 2.47,-9 3.69,-23.72 3.69,-44.17 0,-20.47 -6.76,-34.79 -20.25,-42.99 -13.51,-8.17 -33.75,-12.27 -60.78,-12.27l-171.88 0 0 465.29 201.34 0c51.57,0 77.35,-27.83 77.35,-83.47z"/>
      <path class="fil0" d="M18387.56 16108.32c-14.74,0 -28.85,-3.28 -42.38,-9.83 -13.49,-6.55 -31.29,-9.82 -53.39,-9.82 -22.11,0 -42.77,7.76 -62.01,23.33 -19.23,15.55 -28.83,34.36 -28.83,56.48l0 257.81c0,18.82 -0.62,32.95 -1.85,42.34 -1.22,9.41 -5.11,20.27 -11.66,32.54 -12.28,21.28 -44.2,31.92 -95.77,31.92 -39.27,0 -67.51,-6.94 -84.71,-20.86 -13.1,-11.47 -20.45,-29.06 -22.1,-52.8 0,-8.18 0,-20.04 0,-35.59l0 -430.94c0,-18.82 0.62,-32.95 1.84,-42.34 1.23,-9.41 4.71,-19.86 10.44,-31.31 11.47,-22.1 43.39,-33.14 95.77,-33.14 49.12,0 79.8,9.4 92.08,28.24 9,13.08 13.51,26.59 13.51,40.51 4.08,-5.72 10.01,-12.71 17.79,-20.86 7.77,-8.2 24.35,-19.24 49.72,-33.16 25.37,-13.92 47.68,-20.88 66.91,-20.88 19.24,0 35.41,1.03 48.48,3.07 13.1,2.05 27.42,5.54 42.99,10.44 15.55,4.9 28.44,13.28 38.68,25.16 10.23,11.87 15.34,30.9 15.34,57.09 0,26.18 -7.79,54.85 -23.34,85.95 -15.55,31.1 -38.06,46.65 -67.51,46.65z"/>
      <path class="fil0" d="M18545.57 15994.14c0,-18.83 0.62,-32.96 1.83,-42.35 1.24,-9.41 4.72,-20.26 10.44,-32.54 11.48,-21.27 43.4,-31.92 95.77,-31.92 39.3,0 67.12,6.94 83.48,20.86 13.92,11.47 21.29,29.06 22.11,52.81 0.81,8.18 1.22,20.04 1.22,35.59l0 429.7c0,18.82 -0.62,32.95 -1.83,42.34 -1.24,9.41 -5.13,20.27 -11.68,32.54 -10.63,21.28 -42.14,31.92 -94.53,31.92 -51.55,0 -83.06,-11.03 -94.54,-33.13 -5.72,-12.3 -9.2,-22.93 -10.44,-31.93 -1.21,-9 -1.83,-23.33 -1.83,-42.96l0 -430.93zm12.27 -376.92c11.48,-22.1 43.4,-33.14 95.77,-33.14 51.57,0 82.67,11.04 93.3,33.14 6.55,12.3 10.44,23.15 11.68,32.56 1.21,9.4 1.83,23.52 1.83,42.35 0,18.82 -0.62,32.95 -1.83,42.36 -1.24,9.39 -4.93,20.04 -11.06,31.92 -6.12,11.87 -16.99,20.25 -32.54,25.17 -15.55,4.88 -36.23,7.35 -62,7.35 -25.78,0 -46.44,-2.47 -61.99,-7.35 -15.55,-4.92 -26.4,-13.51 -32.54,-25.78 -6.11,-12.28 -9.82,-23.15 -11.06,-32.54 -1.21,-9.42 -1.83,-23.54 -1.83,-42.37 0,-18.82 0.62,-32.95 1.83,-42.34 1.24,-9.41 4.72,-19.86 10.44,-31.33z"/>
      <path class="fil0" d="M19218.15 15886.11c81.85,0 150,31.31 204.41,93.92 54.43,62.59 81.64,138.91 81.64,228.96l0 216.08c0,18.83 -0.62,32.93 -1.84,42.35 -1.21,9.41 -4.71,19.85 -10.44,31.3 -11.45,22.12 -43.37,33.16 -95.74,33.16 -58.12,0 -91.67,-15.14 -100.69,-45.43 -4.89,-13.93 -7.36,-34.79 -7.36,-62.61l0 -216.07c0,-33.57 -9.62,-59.75 -28.85,-78.59 -19.22,-18.82 -45.02,-28.24 -77.36,-28.24 -32.31,0 -58.51,9.83 -78.57,29.48 -20.04,19.64 -30.07,45.41 -30.07,77.35l0 217.3c0,18.83 -0.62,32.93 -1.83,42.35 -1.24,9.41 -5.13,19.85 -11.68,31.3 -10.62,22.12 -42.14,33.16 -94.53,33.16 -51.55,0 -83.06,-11.04 -94.53,-33.16 -5.73,-12.27 -9.21,-23.13 -10.44,-32.54 -1.22,-9.41 -1.84,-23.52 -1.84,-42.34l0 -434.6c0,-18.03 0.62,-31.74 1.84,-41.15 1.23,-9.4 5.12,-19.84 11.67,-31.29 11.45,-20.47 42.97,-30.69 94.54,-30.69 49.92,0 80.63,9.4 92.08,28.24 8.17,13.9 12.27,30.69 12.27,50.32 3.28,-5.73 10.63,-13.91 22.1,-24.55 11.45,-10.63 22.51,-19.22 33.14,-25.77 27.82,-18.84 58.51,-28.24 92.08,-28.24z"/>
      <path class="fil0" d="M20039 16274.07c24.57,0 54.43,21.68 89.65,65.06 18.82,23.72 28.23,45 28.23,63.82 0,31.1 -22.51,60.16 -67.53,87.18 -46.65,32.73 -103.94,49.1 -171.89,49.1 -76.12,0 -149.35,-27.41 -219.75,-82.26 -33.57,-26.17 -60.98,-61.16 -82.26,-104.95 -21.27,-43.78 -31.92,-92.1 -31.92,-144.87 0,-52.8 10.65,-100.69 31.92,-143.65 21.28,-42.96 48.69,-77.54 82.26,-103.74 67.94,-54.02 140.36,-81.02 217.3,-81.02 31.1,0 61.4,4.29 90.85,12.89 29.47,8.59 51.16,16.97 65.08,25.17l19.65 12.26c14.7,9.82 26.17,17.6 34.35,23.35 21.3,16.35 31.94,34.97 31.94,55.86 0,20.86 -8.61,44.4 -25.8,70.58 -29.45,45.02 -57.69,67.53 -84.71,67.53 -15.55,0 -37.65,-9 -66.3,-27.02 -14.72,-13.91 -35.79,-20.87 -63.23,-20.87 -27.41,0 -52.99,9.83 -76.73,29.48 -23.73,19.62 -35.59,46.85 -35.59,81.63 0,34.79 11.47,61.81 34.37,81.03 22.9,19.23 47.27,28.85 73.05,28.85 25.79,0 49.93,-7.58 72.44,-22.72 22.49,-15.13 40.71,-22.69 54.62,-22.69z"/>
      <path class="fil0" d="M20656.13 15954.86c4.93,-45.82 37.26,-68.75 97.01,-68.75 31.9,0 55.62,2.46 71.17,7.36 15.57,4.9 26.43,13.51 32.57,25.78 6.11,12.28 9.82,23.13 11.03,32.54 1.22,9.39 1.84,23.52 1.84,42.35l0 429.7c0,18.82 -0.62,32.93 -1.84,42.34 -1.21,9.41 -4.69,20.27 -10.42,32.54 -11.47,21.28 -39.5,31.92 -84.11,31.92 -44.61,0 -74.49,-5.54 -89.63,-16.58 -15.14,-11.03 -23.93,-27.2 -26.38,-48.48 -30.3,43.38 -80.84,65.06 -151.62,65.06 -70.81,0 -136.49,-32.33 -197.06,-96.98 -60.57,-64.67 -90.85,-139.76 -90.85,-225.27 0,-85.53 30.51,-160.44 91.47,-224.67 60.98,-64.26 127.9,-96.39 200.72,-96.39 27.84,0 53.22,4.9 76.12,14.73 22.92,9.82 38.88,19.03 47.88,27.63 9,8.59 16.38,16.97 22.1,25.17zm-223.44 295.85c42.55,43.4 78.99,65.08 109.26,65.08 30.3,0 55.47,-11.04 75.51,-33.13 20.05,-22.12 30.08,-46.47 30.08,-73.06 0,-26.6 -9.63,-51.36 -28.85,-74.26 -19.24,-22.92 -45.02,-34.4 -77.36,-34.4 -32.31,0 -58.51,11.48 -78.57,34.4 -20.04,22.9 -30.07,47.86 -30.07,74.88l0 40.49z"/>
      <path class="fil0" d="M21327.21 15886.11c81.85,0 150,31.31 204.41,93.92 54.43,62.59 81.64,138.91 81.64,228.96l0 216.08c0,18.83 -0.62,32.93 -1.84,42.35 -1.21,9.41 -4.71,19.85 -10.44,31.3 -11.45,22.12 -43.37,33.16 -95.74,33.16 -58.12,0 -91.67,-15.14 -100.7,-45.43 -4.88,-13.93 -7.35,-34.79 -7.35,-62.61l0 -216.07c0,-33.57 -9.62,-59.75 -28.85,-78.59 -19.22,-18.82 -45.02,-28.24 -77.36,-28.24 -32.31,0 -58.51,9.83 -78.57,29.48 -20.04,19.64 -30.07,45.41 -30.07,77.35l0 217.3c0,18.83 -0.62,32.93 -1.83,42.35 -1.24,9.41 -5.13,19.85 -11.68,31.3 -10.63,22.12 -42.14,33.16 -94.53,33.16 -51.55,0 -83.06,-11.04 -94.53,-33.16 -5.73,-12.27 -9.21,-23.13 -10.44,-32.54 -1.22,-9.41 -1.84,-23.52 -1.84,-42.34l0 -434.6c0,-18.03 0.62,-31.74 1.84,-41.15 1.23,-9.4 5.12,-19.84 11.67,-31.29 11.45,-20.47 42.96,-30.69 94.54,-30.69 49.92,0 80.63,9.4 92.08,28.24 8.17,13.9 12.27,30.69 12.27,50.32 3.28,-5.73 10.63,-13.91 22.1,-24.55 11.45,-10.63 22.51,-19.22 33.14,-25.77 27.82,-18.84 58.51,-28.24 92.08,-28.24z"/>
      <path class="fil0" d="M22346.94 15692.13l0 732.94c0,18.83 -0.61,32.93 -1.83,42.35 -1.21,9.41 -5.11,19.85 -11.66,31.3 -12.27,22.12 -46.85,33.16 -103.73,33.16 -56.89,0 -88.61,-20.06 -95.15,-60.16 -34.38,39.28 -82.26,58.92 -143.64,58.92 -73.67,0 -140.79,-32.12 -201.36,-96.36 -60.55,-64.26 -90.84,-139.14 -90.84,-224.68 0,-85.53 30.48,-160.62 91.46,-225.29 60.98,-64.65 127.9,-96.98 200.74,-96.98 60.55,0 107.61,20.47 141.18,61.37l0 -257.81c0,-18.82 0.62,-32.95 1.84,-42.34 1.23,-9.41 4.92,-20.06 11.06,-31.92 6.13,-11.89 16.97,-20.27 32.52,-25.17 15.57,-4.92 36.2,-7.38 61.99,-7.38 25.78,0 46.44,2.46 62.01,7.38 15.55,4.9 26.4,13.51 32.54,25.78 6.14,12.28 9.83,23.13 11.04,32.54 1.22,9.4 1.83,23.52 1.83,42.35zm-369.52 624.88c60.57,0 100.88,-11.04 120.92,-33.14 20.06,-22.1 30.09,-46.44 30.09,-73.05 0,-26.59 -9.62,-51.36 -28.86,-74.27 -19.23,-22.92 -45.22,-34.37 -77.95,-34.37 -32.73,0 -58.92,11.24 -78.57,33.76 -19.65,22.51 -29.47,47.26 -29.47,74.28 0,27 10.65,51.55 31.92,73.65l31.92 33.14z"/>
      <path class="fil0" d="M23101.51 16208.99c0,67.92 -17.61,128.28 -52.8,181.09 -35.18,52.79 -77.94,91.65 -128.29,116.61 -50.34,24.96 -102.5,37.44 -156.52,37.44 -54.03,0 -106.4,-13.28 -157.15,-39.89 -50.74,-26.59 -93.5,-65.88 -128.28,-117.85 -34.79,-51.98 -52.19,-110.69 -52.19,-176.17 0,-98.22 34.37,-179.24 103.12,-243.08 68.74,-63.85 147.34,-95.77 235.73,-95.77 88.4,0 166.55,31.72 234.48,95.15 67.92,63.43 101.9,144.25 101.9,242.47zm-379.36 119.08c54.02,0 94.53,-10.22 121.53,-30.69 27.02,-20.47 40.53,-50.74 40.53,-90.84 0,-40.1 -12.68,-69.99 -38.06,-89.63 -25.37,-19.65 -52.78,-29.48 -82.25,-29.48 -29.46,0 -56.89,10.24 -82.26,30.69 -25.38,20.47 -38.06,50.54 -38.06,90.25 0,39.69 13.1,69.57 39.27,89.63l39.3 30.07z"/>
     </g>
    </g>
   </g>
  </g>
 </g>
</svg>